<svg width="470" height="352" viewBox="0 0 470 352" fill="none" xmlns="http://www.w3.org/2000/svg">
<path fill-rule="evenodd" clip-rule="evenodd" d="M311.667 154.672C309.364 145.72 307.194 136.574 303.779 127.971C301.64 122.587 299.375 117.253 297.106 111.924C296.791 111.184 296.658 110.471 296.046 110.102C295.228 109.61 293.536 109.621 292.614 109.452C279.507 107.048 266.264 105.213 252.977 104.181C237.814 103.003 223.032 103.542 208.029 106.013C195.198 108.126 182.494 111.038 169.929 114.373C168.081 114.863 166.237 115.364 164.396 115.878C163.538 116.118 162.114 116.24 161.367 116.741C159.769 117.81 159.227 122.193 158.628 124.05C157.825 126.539 157.358 129.959 155.811 132.076C153.507 135.228 150.001 137.962 147.145 140.582C137.181 149.726 126.257 158.068 113.387 162.589C93.4771 169.583 72.4818 173.966 51.8567 178.3C51.3766 178.401 50.8966 178.501 50.4165 178.601C55.7558 184.514 61.0952 190.426 66.4345 196.339C69.4447 199.672 72.4546 203.005 75.4644 206.338C77.012 208.052 76.8426 208.358 79.0313 207.88C89.9986 205.487 100.947 202.879 111.715 199.699C116.994 198.14 122.364 196.522 127.275 193.997C134.036 190.523 140.381 186.227 146.557 181.816C152.077 177.872 157.468 173.746 162.762 169.503C163.805 168.667 167.571 164.635 168.792 164.898C169.846 165.124 171.669 167.521 172.441 168.219C174.481 170.066 176.529 171.904 178.59 173.727C181.87 176.627 185.22 180.18 189.051 182.363C193.089 184.664 197.716 186.231 201.977 188.064C204.354 189.085 206.734 190.103 209.113 191.118C209.735 191.383 210.602 191.96 211.273 191.975C213.256 192.016 216.137 190.404 217.976 189.776C222.703 188.163 227.394 186.447 232.038 184.607C241.951 180.679 252.847 176.411 261.007 169.343C262.43 168.11 263.821 166.729 264.763 165.082C265.09 164.511 265.575 163.716 265.609 163.041C265.662 161.966 265.058 161.755 264.159 161.083C259.518 157.614 254.514 154.591 249.592 151.543C248.436 150.827 247.277 150.114 246.115 149.408L303.618 154.025C306.301 154.241 308.984 154.456 311.667 154.672Z" fill="#D71E78"/>
<path fill-rule="evenodd" clip-rule="evenodd" d="M226.04 45.1836C219.965 45.4607 213.737 45.7431 207.714 46.5981C201.711 47.4501 196.109 49.6294 190.683 52.2682C180.9 57.0259 170.901 62.8092 164.609 71.9607C161.667 76.2396 159.268 80.7198 155.207 84.0881C154.257 84.8758 153.221 85.8224 151.961 86.0634C150.958 86.255 150.074 85.8493 149.092 85.8009C147.219 85.7079 146.509 86.6956 146.509 88.5568C145.102 87.9956 143.571 87.4876 142.038 87.6938C140.755 87.8665 139.736 88.6396 138.505 88.9647C136.283 89.5515 134.108 88.674 131.996 88.0202C126.659 86.3691 120.798 85.1189 115.191 85.7079C111.498 86.096 107.023 87.6973 108.935 92.4542C110.521 96.4 116.451 98.3974 120.197 99.3789C123.383 100.214 127.667 99.4687 127.398 103.865C127.21 106.933 126.746 110.225 123.484 111.22C121.696 111.766 115.36 112.579 119.06 115.348C121.792 117.393 122.746 120.991 124.824 123.694C127.473 127.139 131.063 129.924 135.261 131.181C139.957 132.588 144.927 132.318 149.751 132.864C146.353 137.553 141.448 140.778 136.982 144.344C132.287 148.093 127.756 152.19 122.322 154.863C117.452 157.259 112.189 158.922 107.159 160.953C101.875 163.087 96.5541 165.196 91.1005 166.858C80.0995 170.21 68.5278 172.552 57.2179 174.609C51.6365 175.624 46.164 175.475 40.5262 175.565C34.743 175.658 28.9633 176.672 23.2864 177.713C20.5342 178.219 17.7556 178.537 15.0039 179.04C13.6834 179.282 8.45625 179.814 8.26899 181.748C7.96364 184.898 11.3706 186.663 13.8654 187.542C14.9308 187.917 16.6466 187.862 17.5693 188.378C18.5673 188.936 18.1778 189.758 18.2919 190.839C18.4584 192.409 19.2987 193.539 20.5871 194.41C21.6468 195.127 22.9242 195.099 22.1936 196.456C21.857 197.082 21.0141 197.476 20.6254 198.137C20.1813 198.89 19.9768 199.716 20.0671 200.582C20.2249 202.099 21.2273 203.257 22.6254 203.794C24.8602 204.651 27.4829 204.044 29.7719 203.766C33.6022 203.3 37.4885 203.254 41.2678 202.416C45.2078 201.542 49.0421 200.196 52.9866 199.301C55.0095 198.843 57.0364 198.458 59.013 197.822C60.2992 197.408 62.1582 196.334 63.5281 196.67C64.8111 196.985 65.814 198.535 66.653 199.434C67.8109 200.674 68.9319 201.949 70.1083 203.172C70.8878 203.982 71.6875 204.775 72.5388 205.51C72.8155 205.749 74.5247 206.794 74.5485 207.075C74.615 207.867 72.7494 207.854 72.3498 208.169C70.0277 210.004 73.517 211.165 75.0226 211.073C78.4929 210.862 81.9809 210.436 85.4182 209.926C93.6024 208.712 101.763 207.401 109.588 204.66C117.328 201.949 124.881 199.065 132.04 195.023C138.911 191.144 145.558 186.759 152.048 182.276C155.198 180.101 158.369 177.847 161.029 175.076C163.629 172.366 165.75 169.255 167.907 166.193C173.071 171.181 178.042 176.426 183.59 180.999C188.868 185.349 195.213 187.672 201.352 190.498C201.153 191.781 195.153 192.55 194.057 192.883C189.052 194.406 184.249 196.85 179.381 198.766C171.283 201.954 163.599 206.103 160.902 214.958C158.25 223.663 161.326 232.426 165.077 240.29C169.504 249.574 174.763 258.173 181.12 266.266C183.824 269.709 186.737 272.879 189.705 276.085C192.236 278.821 194.407 282.061 193.346 285.949C191.308 285.313 190.935 286.902 192.267 288.248C193.451 289.444 195.498 289.676 197.079 289.875C201.872 290.475 206.823 290.263 211.621 289.816C220.358 289.003 229.114 286.798 237.024 283.004C240.959 281.116 242.383 284.16 245.089 286.517C247.219 288.371 250.151 289.574 251.769 291.973C253.1 293.947 252.231 297.066 249.466 296.326C247.314 295.751 245.586 293.351 243.307 293.258C239.262 293.094 246.894 298.864 247.87 299.569C245.937 301.297 243.745 298.927 241.796 298.531C239.926 298.152 239.404 299.119 240.401 300.678C241.177 301.893 243.618 302.753 241.995 304.231C240.65 305.455 237.669 306.1 236.018 306.636C230.867 308.311 225.743 309.502 220.381 310.267C218.65 310.513 215.874 310.356 214.47 311.583C212.618 313.202 213.511 315.885 214.448 317.739C217.998 324.764 225.38 328.218 232.961 328.723C237.629 329.034 242.341 328.733 247.025 328.985C252.158 329.261 257.302 329.672 262.445 329.502C270.715 329.23 275.976 323.253 280.099 316.681C282.718 312.505 285.133 308.208 287.4 303.833C288.286 302.123 290.141 300.352 290.456 298.432C290.741 296.703 289.638 295.316 288.566 294.093C285.745 290.873 282.351 288.416 279.034 285.756C277.141 284.237 276.413 282.979 275.57 280.769C274.86 278.908 273.496 278.112 272.294 276.628C270.973 274.994 271.388 274.705 272.418 273.37C273.497 271.973 273.073 269.913 272.62 268.332C271.971 266.063 270.577 265.563 268.496 264.832C266.598 264.166 264.99 262.996 263.307 261.911C254.995 256.552 247.164 250.488 238.75 245.278C230.449 240.139 221.773 235.599 213.85 229.863C220.283 228.999 225.956 225.525 232.025 223.468C235.139 222.413 238.224 221.285 241.237 219.964C242.388 219.46 243.729 219.011 244.756 218.269C245.787 217.524 246.58 216.543 247.661 215.838C250.227 214.164 253.277 213.211 256.037 211.906C259.016 210.497 261.958 208.957 264.726 207.164C267.312 205.489 269.794 203.576 271.943 201.364C273.655 199.602 275.32 197.306 277.745 196.497C277.49 199.873 273.308 202.668 271.016 204.7C267.297 207.996 263.43 210.798 259.272 213.52C263.936 217.515 269.62 220.116 275.08 222.814C281.22 225.848 287.189 229.211 293.304 232.292C298.484 234.901 303.934 236.912 309.2 239.337C314.881 241.953 320.728 244.147 326.655 246.137C332.019 247.939 337.069 249.859 342.131 252.388C347.051 254.846 352.316 256.725 357.58 258.303C363.494 260.075 369.136 261.761 374.824 264.191C379.953 266.382 385.103 267.782 390.531 268.974C392.324 269.367 394.626 270.089 395.882 268.353C396.833 267.038 396.977 265.01 397.25 263.463C398.296 257.543 398.379 251.528 399.32 245.599C402.893 246.677 406.277 248.003 410.047 248.174C412.416 248.282 413.856 248.526 414.447 251.113C413.076 251.268 408.178 251.336 408.046 253.277C407.926 255.028 410.89 255.046 411.941 255.094C413.821 255.18 415.525 254.871 416.529 256.712C415.051 257.258 411.772 256.262 411.117 258.251C410.273 260.816 414.105 260.81 415.484 261.017C417.889 261.377 417.642 263.266 417.477 265.285C417.26 267.941 417.096 270.601 416.737 273.244C415.971 278.891 414.657 284.452 414.036 290.12C413.498 295.021 413.197 299.728 416.7 303.634C418.109 305.204 420.067 307.012 422.281 307.198C424.527 307.388 424.486 305.815 425.885 304.656C426.742 303.947 427.877 303.802 428.887 303.419C430.115 302.954 431.306 302.273 432.409 301.567C434.443 300.265 436.22 298.65 437.658 296.708C443.281 289.112 445.291 277.763 445.848 268.552C446.202 262.696 445.849 256.831 445.311 250.997C445.022 247.855 444.73 244.711 444.35 241.578C444.233 240.608 444.036 239.636 443.962 238.662C443.921 238.105 444.189 236.978 443.905 236.444C444.268 237.125 444.912 236.621 445.551 236.085C446.871 234.977 446.465 232.848 445.759 231.392C443.632 227 437.258 226.829 433.111 226.488C421.965 225.569 411.375 222.581 400.704 219.389C402.21 217.135 399.842 215.646 398.005 214.871C395.174 213.676 392.25 212.626 389.392 211.485C382.938 208.908 376.619 206.505 369.861 204.861C363.739 203.372 357.816 200.899 351.776 199.087C345.536 197.214 339.409 195.074 333.271 192.893C321.114 188.573 308.947 184.16 297.15 178.92C294.168 177.595 291.319 176.059 288.441 174.527C286.103 173.283 283.36 172.37 281.378 170.572C279.485 168.855 278.352 166.468 276.295 164.909C274.442 163.505 271.908 163.486 270.373 161.742C268.298 159.384 265.82 158.348 263.002 156.965C262.097 156.521 256.139 154.277 256.26 153.003C260.518 153.003 264.889 154.27 269.1 154.86C273.554 155.483 278.004 156.177 282.491 156.522C289.761 157.081 297.027 156.93 304.266 156.142C305.348 156.024 309.687 155.134 310.435 156.294C311.006 157.178 309.588 158.23 309.574 159.18C309.553 160.574 310.676 161.321 311.949 160.837C314.426 159.895 314.063 155.904 313.832 153.879C313.389 150.004 312.404 146.165 311.543 142.369C316.654 144.97 321.507 148.309 325.908 151.979C329.317 154.822 332.395 158.676 336.395 160.702C340.236 162.649 342.52 160.988 342.363 156.704C342.29 154.741 341.892 152.878 341.213 151.049C340.891 150.186 339.572 147.741 340.19 146.82C343.7 149.619 347.187 152.425 350.872 154.994C353.477 156.811 357.254 159.643 360.655 158.923C363.659 158.286 363.365 154.981 362.413 152.755C361.587 150.823 360.103 149.108 358.632 147.633C357.416 146.414 355.687 145.321 355.078 143.631C359.112 145.444 363.266 146.816 367.493 148.09C370.498 148.996 372.599 152.758 376.094 152.202C379.593 151.646 378.199 147.323 376.803 145.443C375.826 144.128 374.474 142.97 373.163 141.998C371.884 141.05 369.939 140.224 369.309 138.646C373.397 139.413 377.506 140.747 381.712 140.501C384.209 140.355 388.378 139.264 387.885 135.908C387.386 132.508 382.859 132.248 380.314 131.614C376.843 130.749 373.521 129.126 370.172 127.888C363.416 125.39 356.528 123.387 349.616 121.396L347.432 120.767C339.629 118.519 331.783 116.604 323.883 114.736C319.979 113.812 316.088 112.805 312.153 112.018C308.346 111.256 304.478 110.814 300.7 109.903C303.884 105.098 300.028 101.149 295.865 98.8621C298.506 98.3282 301.191 98.0071 303.808 97.3599C306.044 96.8075 308.199 95.9586 310.451 95.4696C314.321 94.6295 318.187 94.1877 321.491 91.7912C327.735 87.2625 328.266 80.0559 323.005 74.6026C317.695 69.0986 309.902 66.5215 302.402 66.2656C294.008 65.9792 284.457 67.6061 276.602 70.5779C272.744 72.0378 268.726 73.8938 265.418 76.3801C263.168 78.0713 259.61 81.3119 256.59 81.3119C260.207 76.9383 264.646 72.4154 265.299 66.492C265.918 60.8841 263.374 54.9233 259.105 51.2959C250.575 44.0501 236.498 44.706 226.04 45.1836ZM274.672 285.542C276.898 289.004 279.977 291.815 282.884 294.688C283.887 295.68 285.9 296.94 285.997 298.493C286.075 299.76 284.52 301.186 283.841 302.182C280.25 307.45 277.292 313.268 272.905 317.946C267.946 323.233 262.287 324.261 255.265 324.276C247.469 324.293 239.569 325.268 231.786 324.857C225.193 324.509 218.695 321.574 215.417 315.607C217.552 314.507 220.591 315.031 222.906 315.056C226.062 315.089 229.143 315.032 232.261 314.484C235.087 313.986 237.88 313.24 240.538 312.15C241.914 311.586 243.274 310.942 244.54 310.158C245.468 309.585 246.165 308.707 247.076 308.144C250.436 306.07 254.316 312.665 257.907 312.539C260.107 312.461 259.311 310.298 258.395 309.088C256.743 306.903 253.861 305.554 251.685 303.961C253.711 302.096 256 304.052 257.929 305.026C260.341 306.244 262.846 307.739 265.541 308.197C265.339 304.725 260.615 302.864 258.009 301.451C256.849 300.823 255.396 300.24 255.11 298.857C254.896 297.818 255.263 296.339 255.372 295.29C255.51 293.955 255.612 293.529 257.034 293.152C258.757 292.696 260.493 292.828 262.22 292.258C266.945 290.698 270.621 288.382 274.672 285.542ZM428.251 230.823C429.405 231.143 430.57 231.42 431.743 231.667C434.062 232.156 436.385 232.665 438.713 233.109C439.881 233.331 441.177 233.19 441.521 234.304C441.698 234.876 441.253 235.902 441.177 236.496C441.04 237.565 441.031 238.65 441.018 239.728C440.896 249.656 442.972 259.527 442.058 269.454C441.286 277.844 439.479 288.453 433.316 294.702C430.655 297.399 427.382 300.328 424.032 302.171C421.406 303.615 417.738 299.99 417.201 297.48C416.817 295.681 417.458 293.783 417.875 292.049C418.41 289.828 418.953 287.607 419.482 285.385C420.614 280.64 421.643 275.851 421.968 270.974C422.074 269.372 422.051 267.828 421.961 266.233C421.912 265.366 421.504 263.278 422.11 262.536C422.894 261.577 424.685 262.204 425.745 262.286C426.908 262.376 428.043 262.306 429.179 262.01C431.883 261.303 432.357 259.154 429.405 258.159C427.343 257.464 423.575 258.471 421.843 257.133C419.808 255.562 423.921 255.346 424.881 255.305C426.16 255.251 430.402 255.585 430.185 253.202C430.025 251.436 426.374 251.318 425.096 251.243C422.367 251.083 418.914 252.105 417.734 248.815C417.261 247.497 420.108 246.827 420.822 246.174C422.558 244.585 423.127 241.861 423.276 239.63C423.423 237.436 421.263 229.829 424.554 229.628C425.565 229.566 427.244 230.544 428.251 230.823ZM266.376 274.722C268.313 277.028 269.987 279.554 271.792 281.964C267.56 284.299 263.232 286.176 258.857 288.184C256.867 289.097 255.473 289.821 253.547 288.436C252.166 287.444 251.13 286.032 249.782 285C247.844 283.517 245.819 282.157 243.833 280.743C249.694 278.605 255.644 276.728 261.503 274.586C263.694 273.784 264.794 272.838 266.376 274.722ZM314.634 267.397C313.381 268.667 315.793 272.188 316.268 273.393C312.382 273.084 308.529 272.472 304.713 271.683C303.413 271.415 303.892 272.997 304.378 273.519C304.98 274.164 306.182 274.36 306.986 274.59C309.944 275.438 312.978 275.846 316.014 276.298C314.624 278.007 311.282 280.68 312.358 283.25C314.3 281.578 315.695 279.352 317.843 277.906C318.463 278.831 319.75 282.096 321.16 281.896C323.375 281.582 321.131 277.767 320.668 276.848C322.16 276.848 327.763 278.157 328.544 276.322C329.344 274.444 323.937 274.505 322.938 274.061L323.124 273.834L323.311 273.608C324.059 272.708 324.776 271.819 324.878 270.582C323.205 271.158 322.089 273.778 320.252 273.816C318.509 273.852 317.732 271.234 317.111 269.995C316.758 269.29 315.559 266.459 314.634 267.397ZM126.088 242.707C122.342 245.866 124.887 252.239 127.722 255.104C130.898 258.313 137.969 261.261 141.995 257.99C144.199 256.199 143.404 253.467 142.861 251.086C142.258 248.438 141.882 246.207 139.69 244.391C136.279 241.565 129.889 239.502 126.088 242.707ZM133.693 244.543C137.348 245.32 141.052 248.971 141.921 252.734C143.061 257.669 137.937 258.029 134.562 257.288C130.315 256.355 125.804 253.242 125.588 248.359C125.401 244.145 130.853 243.939 133.693 244.543ZM399.667 223.208C405.14 225.245 410.285 228.032 416.027 229.241C417.78 229.609 418.5 230.013 418.933 231.645C419.54 233.93 420.115 236.245 419.682 238.632C418.782 243.588 411.884 242.981 408.054 242.786C406.087 242.686 402.305 243.046 400.599 241.819C399.353 240.923 399.876 239.243 400.07 237.935C400.796 233.045 400.004 228.095 399.667 223.208ZM101.247 175.982C103.263 176.362 106.746 178.004 103.857 180.063C101.93 181.435 99.061 181.602 96.7966 181.941C92.3732 182.604 87.6512 183.176 83.8128 185.671C76.7002 190.294 77.5715 199.017 79.6989 206.157C78.1667 207.059 73.6658 201.16 72.8178 200.2C69.3788 196.309 65.9257 192.429 62.4585 188.562C60.9743 186.909 73.1396 181.196 74.2329 180.682C80.0119 177.963 85.4062 176.174 91.8884 175.707C94.9624 175.486 98.2051 175.408 101.247 175.982ZM126.338 161.512C126.89 162.904 125.923 163.535 125.034 164.497C120.065 169.871 116.566 177.479 113.798 184.152C112.419 187.479 111.452 190.834 110.598 194.32C109.76 197.74 107.097 198.655 103.907 199.625C96.5584 201.862 88.8227 202.611 81.4483 204.82C79.4725 205.412 79.0849 201.069 78.9609 199.967C78.608 196.833 78.936 193.563 80.5829 190.8C83.6967 185.578 89.9384 184.468 95.5062 183.578C98.6902 183.07 102.885 182.545 105.405 180.368C106.67 179.276 106.849 178.023 105.863 176.665C104.064 174.19 100.898 173.872 98.0683 173.67C96.6904 173.572 88.1581 174.434 87.8794 173.425C92.1276 172.041 96.4881 171.128 100.674 169.545C103.939 168.31 107.231 167.144 110.526 165.988L113.822 164.833C117.173 163.658 120.241 162.229 123.456 160.814C124.664 160.283 125.772 160.086 126.338 161.512ZM54.276 184.159C55.3398 185.59 56.3953 186.791 57.1929 188.398C58.1236 190.273 59.6674 191.469 60.9582 193.079C54.2553 194.262 47.8613 195.764 41.4034 197.93C38.0877 199.042 34.6626 199.592 31.2711 200.389C28.426 201.057 25.394 202.093 22.448 201.48C25.8034 196.857 34.7525 198.135 37.1085 192.536C38.7117 188.727 34.7719 185.689 31.5496 185.028C25.9224 183.873 19.9237 183.784 14.2082 183.373C14.1481 181.186 34.8958 180.054 36.9472 179.877C40.5899 179.562 44.3913 178.879 48.027 178.753C51.4014 178.636 52.5044 181.777 54.276 184.159ZM133.448 168.168C135.446 170.099 137.402 172.073 139.399 174.007C140.712 175.278 142.49 176.633 143.524 178.147C144.845 180.081 142.532 181.011 140.99 181.927C137.098 184.238 133.076 186.395 129.116 188.593C125.558 190.568 121.858 193.082 117.931 194.237C115.831 194.855 113.859 195.814 111.833 196.625C112.81 187.856 117.846 179.891 122.49 172.581C123.556 170.902 124.658 169.247 125.724 167.568C126.261 166.724 127.258 164.73 128.384 164.558C130.049 164.303 132.438 167.192 133.448 168.168ZM31.6248 190.486C29.1904 191.881 26.7502 192.589 24.0045 191.536C23.3295 191.26 22.6602 190.969 21.9998 190.662C23.8293 188.167 29.2405 189.688 31.6248 190.486ZM233.243 159.969C237.558 161.914 242.174 163.852 245.927 166.787C247.312 167.87 250.408 170.146 249.683 172.21C249.063 173.978 245.636 175.483 244.009 176.021C235.449 178.854 225.707 176.793 217.825 181.993C215.692 183.4 214.997 185.239 213.412 187.089C211.979 188.762 210.165 188.554 208.24 187.86C205.711 186.948 203.381 185.552 200.842 184.657C199.544 184.199 197.338 183.896 197.203 182.144C196.568 173.888 198.329 163.37 205.608 158.318C213.779 152.648 225.05 156.276 233.243 159.969ZM237.871 179.208C238.08 180.255 229.981 182.15 229.101 182.393C224.211 183.74 219.642 186.942 214.576 187.458C213.695 185.494 220.712 182.367 221.822 181.964C226.886 180.125 232.553 179.791 237.871 179.208ZM78.8332 175.542C72.6932 178.058 66.7418 181.138 61.5952 185.421C59.8199 186.899 55.5073 179.888 54.5415 178.814C62.7194 178.474 70.7787 176.914 78.8332 175.542ZM193.591 126.228C199.284 129.988 204.241 134.904 210.49 137.787C208.535 138.094 206.4 136.829 204.533 136.385C202.714 135.952 200.875 135.667 199.104 135.055C198.017 134.679 193.526 132.252 192.683 133.897C191.366 136.467 200.641 138.245 201.96 138.683C206.413 140.163 210.838 141.713 215.246 143.324C219.515 144.884 223.782 146.562 228.194 147.682C232.675 148.82 237.426 149.113 241.734 150.88C245.543 152.443 248.818 155.029 252.492 156.854C256.177 158.684 260.365 159.816 263.541 162.54C260.088 166.226 256.003 169.312 251.534 171.661C250.818 166.041 244.23 162.841 239.723 160.68C229.896 155.97 215.138 148.868 205.122 156.85C197.802 162.683 196.81 173.752 196.81 182.417C194.827 181.785 193.017 180.781 191.175 179.833C189.899 179.176 189.885 177.348 189.724 176.126C189.462 174.126 188.921 172.189 188.299 170.27C186.925 166.025 185.205 161.883 183.565 157.736C180.912 151.028 177.642 144.412 176.011 137.355C174.946 132.749 173.68 124.833 179.234 122.547C184.039 120.569 189.69 123.651 193.591 126.228ZM218.449 107.482C219.377 108.103 219.031 109.969 218.968 110.905C218.737 114.309 218.882 117.728 218.768 121.138C218.629 125.293 218.599 132.912 214.314 135.242C211.383 136.836 207.737 134.448 205.399 132.822C201.441 130.072 197.81 126.878 193.798 124.194C189.042 121.011 180.029 116.608 175.477 122.595C173.014 125.836 173.359 130.664 173.974 134.435C174.785 139.409 176.68 144.127 178.562 148.776C182.451 158.375 186.509 168.131 188.671 178.292C183.741 175.362 179.907 171.139 175.604 167.43C172.415 164.68 167.678 161.523 166.942 157.042C166.776 156.03 165.796 155.309 165.122 154.632C164.245 153.751 163.627 152.858 163.072 151.734C161.845 149.251 161.048 146.57 160.546 143.853C159.492 138.153 159.994 132.479 160.966 126.813C161.405 124.25 160.76 121.501 161.358 119.003C161.773 117.269 162.997 117.371 164.625 116.977C170.489 115.556 176.365 114.179 182.233 112.772C184.616 112.199 187.208 111.127 189.683 111.162C191.714 111.192 193.42 112.403 195.173 113.28C198.051 114.72 202.627 117.239 205.931 115.807C209.783 114.138 205.295 110.371 207.226 108.588C208.55 107.366 212.508 108.099 214.303 107.795C215.287 107.629 217.547 106.877 218.449 107.482ZM157.847 156.705C160.648 157.147 162.27 158.362 163.812 160.745C165.38 163.167 165.566 164.367 163.331 166.263C160.921 168.307 158.399 170.326 155.839 172.167C152.596 174.501 148.997 176.267 145.791 178.658C144.388 179.705 138.015 171.497 136.909 170.371C135.384 168.819 133.819 167.262 132.182 165.833C131.584 165.31 129.709 164.099 129.708 163.211C129.706 160.966 134.685 158.957 136.288 158.339C139.878 156.954 143.641 156.395 147.466 156.338C150.857 156.286 154.489 156.176 157.847 156.705ZM145.366 146.829C147.996 148.225 150.742 149.401 153.388 150.768C154.327 151.253 160.246 153.739 159.947 155.225C153.286 154.803 146.655 153.676 140.015 154.965C137.033 155.545 134.191 156.515 131.7 158.307C129.813 159.663 128.374 162.268 126.5 159.949C130.325 157.782 133.77 154.908 137.163 152.119C138.648 150.897 140.176 149.749 141.683 148.561C142.579 147.855 144.057 146.134 145.366 146.829ZM302.922 114.372C305.006 114.665 307.037 115.217 309.083 115.691C317.373 117.611 325.695 119.335 333.963 121.367C350.455 125.419 367.441 129.327 383.167 135.819C381.844 137.28 378.341 136.222 376.7 135.935C373.488 135.374 370.37 134.393 367.197 133.653C364.093 132.93 360.978 132.067 357.848 131.463C356.407 131.186 353.864 130.82 353.806 132.98C353.724 136.044 359.676 138.335 361.86 139.454C364.196 140.652 366.458 141.975 368.682 143.367C370.44 144.468 373.682 145.935 374.252 148.123C368.547 145.706 362.839 143.299 357.169 140.801C355.033 139.86 352.869 138.973 350.836 137.825C349.48 137.059 347.735 135.716 346.13 135.595C343.957 135.431 343.596 137.405 344.512 138.997C345.658 140.99 348.023 142.115 349.763 143.51C351.981 145.288 353.943 147.387 355.94 149.4C357.598 151.071 359.732 152.716 360.597 154.976C357.617 155.972 354.232 152.778 352.042 151.2C348.601 148.719 345.397 146.02 342.114 143.339C340.435 141.967 338.433 139.746 336.223 139.336C333.422 138.817 333.654 142.019 334.333 143.784C335.851 147.729 339.406 151.019 339.66 155.466C339.816 158.204 337.496 157.162 335.949 156.064C333.343 154.214 331.579 151.395 329.214 149.274C323.519 144.165 316.999 139.806 309.954 136.78C308.693 136.238 308.239 134.293 307.856 133.124C307.284 131.38 306.626 129.689 305.938 127.984C304.431 124.249 303.196 120.212 301.085 116.762C300.496 115.8 298.977 114.82 300.234 114.254C300.917 113.946 302.216 114.273 302.922 114.372ZM242.779 108.055C244.913 108.304 247.073 108.281 249.211 108.507C252.701 108.874 251.179 113.119 251.741 115.676C253.396 123.205 261.377 124.627 267.425 121.075C270.827 119.076 272.87 116.212 274.699 112.861C275.742 110.951 276.519 110.643 278.677 111.121C280.158 111.45 281.505 111.38 283.012 111.489C284.908 111.627 285.073 112.029 285.112 113.833C285.146 115.435 285.376 116.545 286.443 117.842C288.476 120.315 291.885 121.942 294.789 123.184C297.699 124.429 300.995 125.354 302.593 128.296C303.398 129.779 304.261 131.55 304.494 133.236C304.749 135.078 304.124 136.221 305.198 137.92C307.432 141.453 308.455 145.313 309.584 149.328C309.952 150.636 310.098 151.174 308.67 151.534C306.621 152.05 303.712 151.266 301.609 151.184C300.11 151.125 299.234 148.481 298.746 147.41C297.799 145.327 296.636 143.354 295.473 141.382C292.835 136.916 290.015 132.479 286.57 128.577C283.97 125.631 280.131 121.965 276.801 126.104C273.556 130.137 271.218 134.862 267.315 138.378C263.883 141.47 260.346 141.52 256.786 138.589C253.282 135.703 250.618 131.766 248.44 127.839C246.084 123.591 244.308 119.056 242.012 114.783C241.293 113.444 237.969 109.821 238.982 108.269C239.666 107.221 241.819 107.943 242.779 108.055ZM224.907 107.128C226.785 107.217 228.675 107.006 230.554 106.969C233.954 106.901 236.797 107.02 238.505 110.278C240.012 113.153 241.295 116.211 242.671 119.155C245.659 125.551 248.59 132.094 253.177 137.536C257.241 142.358 262.492 144.786 267.779 140.181C270.123 138.139 271.904 135.504 273.586 132.914C274.934 130.838 276.473 127.184 278.733 125.974C281.252 124.625 284.135 127.72 285.675 129.399C288.264 132.223 290.428 135.544 292.506 138.751C294.014 141.076 295.457 143.451 296.922 145.804C297.515 146.758 299.934 149.879 299.129 151.067C298.322 152.259 294.382 151.445 293.241 151.335C290.519 151.076 287.801 150.982 285.077 150.748C276.606 150.019 268.26 148.158 259.767 147.661C254.172 147.334 248.66 146.252 243.153 145.27C237.798 144.315 232.409 143.663 227.111 142.401C223.997 141.659 220.876 140.915 217.767 140.145C216.692 139.879 211.607 139.153 211.292 137.755C214.792 137.144 216.63 135.786 217.872 132.371C219.427 128.093 219.607 123.326 219.74 118.82C219.791 117.086 219.799 115.351 219.8 113.617L219.8 111.536C219.801 110.292 219.264 108.035 220.385 107.172C221.423 106.374 223.704 107.071 224.907 107.128ZM155.407 134.75C155.26 140.386 156.268 146.067 158.583 151.216C156.161 151.604 153.281 148.566 151.249 147.548C150.466 147.156 145.284 145.273 147.02 143.833C150.212 141.186 152.305 137.487 155.407 134.75ZM85.9548 139.333C85.2445 140.735 86.1219 142.514 86.5971 143.843C82.9013 144.731 79.2207 145.603 75.4971 146.357C72.6908 146.925 73.6699 148.608 76.1058 148.492C79.4935 148.331 82.6455 146.896 86.0166 146.709C89.2278 146.532 89.6058 149.335 92.3436 149.875C92.2504 148.333 91.0027 147.261 90.1065 146.104C91.584 145.346 93.0933 144.642 94.5265 143.806C95.2691 143.374 97.3198 141.56 96.5303 140.596C95.7331 139.623 93.6429 141.446 92.899 141.848C91.8416 142.419 89.7308 143.677 88.487 143.316C86.7829 142.822 87.1376 140.376 85.9548 139.333ZM139.205 102.61C140.704 102.714 142.335 102.21 143.755 102.87C145.171 103.528 146.861 104.968 148.045 105.967C149.192 106.934 149.762 108.109 151.187 108.679C152.611 109.25 154.069 109.2 154.618 110.94C153.327 111.295 150.791 110.825 149.779 111.774C148.308 113.156 150.875 114.676 151.941 115.111C153.468 115.734 154.717 115.532 156.279 115.415C156.959 115.365 156.953 115.155 157.509 115.492C159.574 116.74 158.145 121.179 157.475 122.798C154.199 130.725 143.003 128.055 136.546 127.244C138.601 125.174 141.966 122.891 142.136 119.64C142.186 118.672 141.946 116.942 140.703 116.862C139.709 116.797 138.517 118.299 137.898 118.89C136.064 120.644 133.69 123.552 131.037 123.803C127.491 124.14 124.762 118.396 123.292 115.891C125.099 115.551 127.08 115.571 128.13 113.798C129.38 111.69 129.401 108.461 129.38 106.088C129.361 104.067 128.717 101.857 131.418 101.758C133.906 101.666 136.693 102.436 139.205 102.61ZM377.342 107.793C377.859 108.92 380.104 109.362 381.09 109.663C384.84 110.808 388.501 112.263 392.157 113.689C399.537 116.57 406.836 119.752 413.575 123.985C414.835 124.777 414.218 123.25 413.891 122.7C413.157 121.465 411.617 120.592 410.466 119.836C407.351 117.789 404.053 116.351 400.609 114.982C393.719 112.243 386.723 109.339 379.656 107.12C378.837 106.863 376.648 106.278 377.342 107.793ZM291.749 113.374C293.119 113.516 294.723 113.204 296.041 113.651C297.758 114.234 297.475 115.412 297.983 116.862C298.845 119.322 299.767 121.761 300.667 124.208C297.338 124.053 294.149 121.418 291.328 119.901C289.731 119.043 284.179 116.193 285.853 113.584C286.913 111.933 290.228 113.216 291.749 113.374ZM253.863 109.085C255.924 109.048 258.19 109.672 260.277 109.775C263.074 109.914 265.829 110.447 268.622 110.575C270.46 110.66 272.265 111.038 274.083 111.285C272.274 115.476 268.743 119.142 264.306 120.66C260.806 121.858 255.907 122.061 253.515 118.747C252.139 116.841 249.892 109.157 253.863 109.085ZM146.525 91.7736C148.772 93.2667 150.574 95.4062 152.452 97.3151C157.155 102.096 162.022 107.215 164.058 113.768C164.337 114.666 162.217 115.459 161.643 115.494C160.43 115.567 160.183 114.956 159.707 113.931C158.529 111.394 158.077 108.559 156.192 106.396C153.895 103.758 151.128 101.186 148.462 98.9202C146.649 97.3804 142.208 95.2122 141.688 92.6665C141.072 89.657 145.164 90.8696 146.525 91.7736ZM204.506 109.188C205.777 109.558 205.878 110.734 206.169 112.001C207.337 117.093 195.52 111.538 193.875 110.706C194.422 109.071 199.808 109.369 201.055 109.305C202.026 109.255 203.567 108.915 204.506 109.188ZM134.703 111.833C136.454 111.9 135.647 104.748 133.656 105.468C131.949 106.085 133.581 111.789 134.703 111.833ZM380.875 103.609C383.556 105.924 387.766 106.234 391.099 106.977C396.012 108.072 400.881 109.467 405.754 110.725C408.831 111.52 407.099 109.625 405.558 108.913C402.909 107.688 399.91 107.035 397.079 106.361C394.014 105.632 390.882 105.145 387.834 104.349C385.724 103.797 383.003 102.387 380.875 103.609ZM297.459 53.87C294.479 54.4172 291.505 55.3701 288.892 56.9311C286.73 58.2233 286.816 60.2338 289.557 59.0673C302.345 53.6245 318.212 56.9215 330.7 61.7409C332.077 62.2723 331.975 61.1128 331.558 60.2189C330.985 58.9876 329.76 58.2728 328.583 57.7011C325.049 55.9825 320.975 55.0108 317.132 54.2968C310.728 53.1071 303.893 52.689 297.459 53.87ZM295.59 46.0524C293.965 46.4931 292.098 47.5862 291.105 48.9728C289.941 50.5956 290.866 51.425 292.48 50.4706C294.282 49.4055 295.929 48.3435 297.996 47.781C299.087 47.4843 299.043 46.7999 298.259 46.1991C297.526 45.6365 296.386 45.8362 295.59 46.0524Z" fill="black"/>
</svg>
