<svg width="374" height="232" viewBox="0 0 374 232" fill="none" xmlns="http://www.w3.org/2000/svg">
<path fill-rule="evenodd" clip-rule="evenodd" d="M275.749 186.686C273.978 188.734 271.363 190.254 269.356 192.127C267.249 194.094 264.962 195.813 262.863 197.756C253.605 186.44 240.923 179.502 229.936 170.112C224.727 165.66 220.89 159.622 218.081 153.425C216.642 150.248 215.578 146.978 214.746 143.594C214.371 142.07 214.004 140.55 213.759 139.005C213.462 137.134 213.385 136.974 212.123 135.514C211.58 134.885 210.527 133.049 209.462 133.251C208.567 133.422 206.928 136.149 206.362 136.822C203.639 140.062 201 143.4 198.134 146.514C193.748 151.279 189.756 155.968 185.684 161.019C177.355 171.352 168.371 181.079 159.305 190.802C158.632 191.523 157.064 193.637 156.098 193.921C154.924 194.267 153.015 192.826 151.832 192.021C148.976 190.077 146.726 187.671 144.285 185.261C139.522 180.56 136.296 173.96 134.126 167.681C132.828 163.922 131.983 160.026 130.643 156.28C130.084 154.719 128.817 152.8 129.46 151.44C129.652 151.035 130.87 149.958 131.3 149.875C131.808 149.778 132.655 150.474 132.832 150.426C134.518 149.965 133.582 148.2 134.585 147.25C135.154 146.712 138.045 146.791 138.908 146.495C142.065 145.412 144.897 143.346 147.881 142.113C160.373 136.952 173.018 131.932 183.802 123.503C186.599 121.318 188.458 119.676 191.795 118.263C195.168 116.836 198.558 115.562 201.999 114.316C205.035 113.218 208.088 112.187 211.224 111.4C214.616 110.548 219.427 109.467 222.815 110.565C229.47 112.719 231.619 118.202 234.269 123.986C237.854 131.812 242.189 139.217 246.889 146.42C255.93 160.279 266.926 172.715 275.749 186.686Z" fill="#D71E78"/>
<path fill-rule="evenodd" clip-rule="evenodd" d="M75.3395 64.1664C74.9733 63.9805 72.1144 65.1442 71.6345 65.3222C69.7177 66.0334 67.9122 67.2151 66.1064 68.1764C67.4904 69.8608 68.8747 71.5455 70.2584 73.2302C71.6149 69.9027 73.3584 67.1571 75.3395 64.1664ZM76.2832 84.8695C75.8124 84.9224 79.7879 94.4759 80.2521 95.5486C81.9415 99.45 83.7153 103.313 85.427 107.205C87.0855 110.976 89.1893 114.446 91.3088 117.969C93.1217 120.982 94.9864 125.658 97.721 127.889C95.9944 120.229 96.2218 111.421 91.2692 104.99C86.1355 98.3217 81.0598 91.8106 76.2832 84.8695ZM275.749 187.026C268.077 174.878 258.474 164.131 250.474 152.2C245.995 145.519 241.635 138.753 237.864 131.641C235.122 126.469 233.417 119.088 229.181 115.133C227.315 113.391 225.32 111.685 222.815 110.905C219.388 109.837 214.668 110.895 211.224 111.74C204.807 113.313 198.539 115.756 192.46 118.323C186.295 120.925 181.035 125.6 175.465 129.356C169.489 133.386 163.021 136.321 156.326 138.891C150.497 141.128 145.311 144.34 139.513 146.593C138.357 147.041 135.999 146.976 135.03 147.561C133.986 148.191 134.397 150.052 133.129 150.738C132.557 151.048 132.366 149.925 131.927 149.944C131.39 149.966 130.9 150.596 130.383 150.995C128.276 152.621 129.567 153.705 130.401 155.943C133.121 163.232 134.582 170.648 138.401 177.53C141.541 183.186 146.034 188.255 151.325 191.999C152.13 192.569 154.753 194.777 155.698 194.63C156.548 194.499 158.278 192.238 158.865 191.624C161.529 188.838 163.965 185.841 166.627 183.051C170.741 178.738 174.702 174.31 178.695 169.939C183.33 164.865 187.432 159.115 191.607 153.693C193.527 151.199 195.999 149.167 198.134 146.854C201.004 143.745 203.639 140.401 206.362 137.163C207.186 136.182 208.566 133.675 209.846 133.705C210.743 133.725 212.324 135.837 212.794 136.499C214.538 138.959 214.53 143.402 215.397 146.473C217.513 153.962 221.329 161.276 226.563 167.054C231.767 172.801 238.434 176.888 244.59 181.506C251.258 186.511 257.575 191.632 262.863 198.096C264.962 196.153 267.249 194.434 269.356 192.467C271.363 190.594 273.978 189.074 275.749 187.026ZM176.999 221.395C178.491 221.41 181.016 222.328 182.351 221.775C178.393 217.396 174.759 213.639 169.752 210.43C164.555 207.1 159.377 203.799 154.33 200.247C144.159 193.089 136.679 184.599 132.43 172.678C131.336 169.608 130.604 166.389 129.802 163.233C129.371 161.533 128.512 153.582 127.054 152.896C126.19 152.489 119.69 157.058 118.66 157.627C116.252 158.959 113.835 159.991 111.345 161.033C105.994 163.274 100.477 164.983 94.8021 166.41C87.9986 168.12 83.3644 165.29 79.1496 159.943C74.368 153.876 70.3944 147.031 66.0225 140.66C64.0343 137.762 62.3872 134.869 60.9189 131.673C59.958 129.582 56.1467 123.939 57.4636 121.711C61.2208 124.572 62.5727 130.259 65.1321 134.09C68.3219 138.863 71.9168 143.363 75.1231 148.133C77.8194 152.143 80.5701 157.002 84.5535 159.885C88.0574 162.421 91.386 161.641 95.1569 160.501C99.7273 159.121 104.465 158.44 108.944 156.727C113.791 154.874 118.377 152.245 123.106 150.101C125.31 149.101 127.95 148.533 130.028 147.286C131.818 146.213 131.551 145.646 131.683 143.36C131.836 140.693 132.013 138.024 132.131 135.354C132.21 133.56 131.24 131.128 131.899 129.789C126.53 130.72 121.282 131.967 115.951 133.07C113.032 133.674 110.217 134.42 107.269 134.894C106.145 135.075 104.608 135.07 103.602 135.56C102.799 135.329 102.389 135.476 102.374 135.999C102.335 136.284 102.275 136.564 102.191 136.839C100.545 137.588 99.5873 135.982 98.1594 134.441C96.3974 132.54 95.0781 130.398 93.7855 128.164C90.8952 123.168 87.5638 118.47 84.8891 113.333C82.1631 108.097 79.9491 102.491 77.6378 97.0584C75.5175 92.0745 74.1598 86.6843 71.8168 81.8184C70.7712 79.6463 69.446 77.8503 67.8985 76.0154C66.6215 74.5013 64.6569 71.235 62.7499 70.5394C62.2457 70.3555 60.9252 70.6645 60.3524 70.6237C59.2107 70.5422 58.1933 70.1231 57.0249 70.2148C54.4953 70.4128 51.7375 72.0124 49.716 73.4188C51.0224 74.5832 54.2903 75.9986 51.943 78.0961C49.665 80.1325 48.4069 76.4796 47.5377 74.8792C43.4445 78.2404 44.0361 82.875 43.5633 87.6241C43.3163 90.1035 42.6667 92.5453 42.2475 94.9875C41.9456 96.7452 42.1574 98.5632 42.0711 100.358C41.8512 104.918 41.3928 109.283 41.4144 113.779C41.4387 118.585 41.7661 123.226 42.1507 127.997C42.798 136.03 44.2812 144.065 45.5531 152.034C46.2686 156.513 47.248 160.865 48.1987 165.272C49.2777 170.274 51.2737 175.011 52.393 180C53.5336 178.55 54.3914 178.543 56.2361 178.735C57.655 178.883 58.6081 178.545 58.525 180.515C58.4713 181.792 57.3445 182.767 56.0977 182.99C54.4718 183.281 53.9194 182.47 53.0815 181.238C52.8855 183.57 54.4538 186.009 55.074 188.286C55.6609 190.444 56.0499 192.56 57.0363 194.626C57.9988 196.641 58.8229 198.629 59.7968 200.625C60.2454 201.543 60.6649 202.476 61.1185 203.392C61.3478 203.855 61.618 204.494 61.9603 204.885C62.7632 205.802 62.6354 205.358 63.5752 205.88C65.6226 207.017 64.8537 206.734 64.9015 209.082C64.9482 211.399 66.1362 213.101 68.0412 214.403C72.083 217.166 76.0696 217.935 80.6646 219.331C84.9459 220.632 89.4555 221.748 93.989 221.722C99.5414 221.691 105.02 220.963 110.573 220.89C116.698 220.808 122.883 220.842 128.996 221.053C131.514 221.14 133.853 221.253 136.284 221.896C139.107 222.643 141.838 222.346 144.748 222.233C150.956 221.992 157.378 221.511 163.505 221.468C167.917 221.437 172.571 221.129 176.999 221.395ZM337.977 223.801C339.081 224.384 341.555 224.145 342.664 223.983C344.619 223.698 344.828 222.924 346.068 221.181C348.203 218.18 349.936 215.305 351.191 211.829C353.595 205.175 354.576 198.368 355.631 191.408C356.804 183.674 354.662 175.657 353.896 167.976C353.72 166.213 353.479 164.467 353.201 162.718C353.034 161.673 352.991 158.115 352.303 157.21C350.981 155.471 344.833 156.874 342.416 157.031C335.669 157.472 328.878 157.575 322.135 157.652C318.539 157.692 314.924 157.843 311.364 157.871C309.729 157.884 308.13 157.802 306.489 157.643C305.941 157.59 305.405 157.464 304.852 157.434C302.959 157.329 303.101 157.054 302.612 158.731C301.755 161.667 302.414 165.403 302.189 168.451C301.888 172.524 301.725 176.654 301.8 180.736C301.869 184.507 301.74 188.27 301.881 192.05C301.94 193.616 302.111 194.892 302.524 196.387C302.991 198.077 303.504 202.026 304.667 203.196C304.799 203.329 305.788 203.018 306.05 203.35C306.454 203.861 306.38 204.942 306.658 205.272C307.556 206.341 309.412 206.425 310.759 206.906C314.454 208.223 317.844 209.654 321.327 211.431C324.439 213.018 329.456 214.369 331.327 217.501C332.185 218.937 332.3 220.83 333.089 222.312C333.987 223.999 332.19 223.117 334.391 223.801C335.382 224.11 336.961 223.801 337.977 223.801ZM9.91341 204.716C9.63348 208.613 7.4383 212.325 6.67416 216.156C6.31659 217.95 5.71007 219.714 5.28977 221.497C4.88673 223.208 3.43059 225.234 3.57801 226.927C8.95246 225.012 14.3963 224.531 20.0134 224.015C25.3373 223.525 30.9615 223.33 36.2407 223.328C41.6202 223.325 47.3722 222.8 52.9114 222.718C58.7041 222.633 64.5844 222.483 70.2932 221.882C67.308 219.671 63.5728 217.595 61.3686 214.519C58.9723 211.175 57.7279 206.985 55.6194 203.457C51.3882 196.376 48.6982 187.589 46.4803 179.634C42.0025 163.574 36.9986 147.81 35.7926 131.152C33.4974 132.328 31.6755 136.888 30.5263 139.159C29.0596 142.058 28.2915 145.201 27.338 148.282C25.3746 154.629 24.0157 161.211 21.6115 167.497C17.0165 179.515 14.063 192.464 9.91341 204.716ZM301.655 111.116C302.649 118.298 304.733 125.574 304.813 132.843C304.831 134.442 304.56 136.218 304.893 137.795C305.249 139.479 306.407 140.967 307.075 142.567C308.136 145.107 310.823 150.313 308.232 152.465C308.179 150.423 306.31 147.829 305.369 146.043C303.95 143.352 302.086 140.892 300.548 138.268C297.328 132.776 293.72 127.401 289.571 122.559C285.53 117.842 280.872 113.659 276.586 109.167C275.299 107.818 264.969 94.8299 264.559 95.0114C267.763 107.367 273.209 118.118 280.663 128.463C284.317 133.534 288.703 136.871 293.152 141.167C296.857 144.745 303.839 148.571 302.558 154.434C308.349 153.877 314.103 152.988 319.946 152.988C318.985 145.591 318.25 138.312 316.534 131.037C314.586 122.777 313.267 114.269 311.618 105.936C309.937 97.4278 307.083 89.1912 305.309 80.6994C303.609 72.568 302.149 64.451 300.903 56.229C299.873 60.7848 300.253 65.7888 299.888 70.4371C299.515 75.1862 299.551 79.8479 299.675 84.6248C299.905 93.4977 300.851 102.263 301.655 111.116ZM326.75 68.8124C326.782 65.0144 327.518 61.2678 327.745 57.4789C327.815 56.3164 328.973 48.3853 327.893 47.9713C327.005 49.9073 326.798 52.3848 325.991 54.4161C325.186 56.4454 324.108 58.3787 323.335 60.4221C321.66 64.849 321.082 69.858 320.901 74.5644C320.493 85.2098 320.282 95.8313 320.998 106.477C321.304 111.04 321.54 115.61 321.456 120.182C321.364 125.213 320.593 129.579 321.529 134.569C322.455 139.509 323.037 144.43 323.345 149.443C323.562 152.961 323.649 152.712 327.006 152.465C329.429 152.286 331.876 152.477 334.303 152.366C333.168 138.653 332.983 124.912 331.17 111.252C330.246 104.283 330.221 97.2129 329.072 90.2698C328.501 86.8208 327.543 83.4412 326.993 79.9882C326.402 76.2808 326.693 72.5484 326.75 68.8124ZM81.2735 60.1826C87.7359 60.7425 94.61 62.6746 101.234 61.3988C100.142 60.9565 97.2847 60.3465 98.5707 58.601C99.8782 56.8261 102.082 59.0774 103.386 58.8449C104.19 58.7014 105.967 55.3402 106.462 54.6443C107.587 53.0627 107.723 52.787 109.745 52.3816C111.705 51.9896 112.149 52.4142 112.397 50.466C112.682 48.2257 111.907 45.7071 111.984 43.4163C112.149 38.4845 113.74 34.1596 115.221 29.5195C108.929 30.8882 102.778 32.5113 96.3445 33.3935C93.5945 33.7706 89.3163 34.6406 86.8181 32.7713C86.1684 32.2851 86.2723 31.6288 85.7407 31.0654C84.8491 30.1201 83.1954 29.1423 81.931 28.8729C74.1496 27.2165 73.3906 38.3092 77.2901 42.46C78.2667 43.5002 79.6256 44.0138 80.6258 44.9669C81.9608 46.238 82.0701 47.5769 82.265 49.5172C82.6304 53.1556 82.134 56.8081 80.5819 60.1363L81.2735 60.1826ZM175.701 112.551C177.998 112.987 180.395 112.887 182.698 113.259C183.517 113.392 185.97 113.853 186.689 113.374C187.788 112.644 188.178 109.965 188.698 108.717C189.611 106.523 190.904 104.609 191.775 102.374C195.335 93.2479 198.655 84.0849 202.96 75.2701C201.31 74.8412 200.043 74.8243 198.38 74.6028C196.647 74.3719 195.077 73.3474 193.424 72.9071C191.853 72.4888 190.207 72.5954 188.65 72.1089C187.793 71.8411 187.057 71.2455 186.212 71.0373C184.864 70.7061 183.292 70.5124 182.49 71.3969C181.669 72.3041 181.381 74.7918 180.934 75.9637C179.743 79.0857 178.361 82.0987 177.363 85.2925C176.464 88.173 175.609 91.0229 174.817 93.9297C173.98 96.9984 172.331 99.5277 171.327 102.459C170.563 104.69 169.842 106.971 169.728 109.35C169.617 111.672 169.279 111.82 171.6 112.191C172.772 112.378 174.598 113.074 175.701 112.551ZM326.839 221.199C327.437 221.478 328.001 221.441 328.53 221.088C323.343 218.897 318.298 215.858 312.886 214.355C307.81 212.945 302.877 211.261 297.986 209.525C294.013 208.114 290.44 207.016 286.848 204.534C284.667 203.027 282.73 201.332 281.231 199.13C279.563 196.678 279.192 193.188 277.385 190.98C274.947 193.659 272.082 195.687 269.196 197.815C268.198 198.551 265.804 200.156 265.462 201.296C265.032 202.733 266.186 204.109 266.757 205.564C268.219 209.29 268.933 213.014 269.726 216.888C270.044 218.441 270.731 220.775 272.006 221.425C273.167 222.017 276.53 221.587 277.976 221.477C285.515 220.906 292.921 220.321 300.506 220.841C309.089 221.429 318.278 221.836 326.839 221.199ZM341.897 152.151C343.268 152.156 344.606 151.985 345.971 151.985C345.183 148.305 347.026 143.544 347.679 139.871C348.41 135.762 348.966 131.514 349.453 127.373C350.481 118.65 350.946 110.032 350.959 101.245C350.972 92.7426 352.52 84.9726 354.688 76.7988C357.016 68.0204 360.828 60.1261 363.981 51.6602C360.523 53.4881 358.609 57.7651 356.792 61.0349C354.495 65.1693 352.965 69.7471 352.028 74.3883C350.218 83.342 348.234 92.3226 346.146 101.261C343.972 110.569 342.694 119.961 340.203 129.193C338.989 133.694 337.337 139.233 337.246 143.875C337.207 145.795 336.629 149.817 337.499 151.485C338.313 153.046 340.113 152.31 341.897 152.151ZM135.062 140.603C134.99 141.559 134.922 142.468 134.752 143.412C136.65 143.394 139.054 141.425 140.682 140.541C142.665 139.464 144.65 138.276 146.59 137.193C150.334 135.103 154.585 133.726 158.583 132.008C163.175 130.036 167.397 127.652 171.789 125.277C173.323 124.447 184.349 119.668 184.163 118.362C181.743 118.281 179.322 118.201 176.901 118.121C174.826 118.052 171.612 118.521 169.625 117.879C168.536 117.527 167.314 116.233 166.903 115.22C166.497 114.217 167.41 109.604 166.879 109.31C164.17 112.076 162.467 115.753 160.044 118.737C157.368 122.035 153.909 123.96 150.097 125.713C145.887 127.649 141.53 129.148 137.228 130.806C135.414 131.506 135.45 131.906 135.292 133.895C135.115 136.119 135.134 138.374 135.062 140.603ZM353.815 224.255C358.378 224.744 363.054 224.465 367.653 224.847C369.327 224.986 371.647 225.193 369.963 227.439C368.903 228.853 365.507 228.4 363.966 228.498C359.831 228.761 355.452 228.619 351.306 228.558C350.433 228.545 349.469 228.286 348.587 228.344C347.569 228.411 346.349 229.144 345.421 229.138C344.849 229.135 344.644 228.531 344.151 228.476C343.076 228.355 342.002 228.267 340.918 228.267C324.534 228.271 308.375 227.942 292.031 227.924C284.216 227.916 276.275 227.781 268.463 227.414C266.823 227.337 257.481 227.672 257.74 224.718C257.872 223.197 260.922 222.983 262.034 222.821C262.859 222.702 263.714 222.72 264.54 222.676C266.735 222.559 267.696 223.087 267.233 220.685C265.477 211.577 262.331 204.049 255.607 197.5C250.11 192.145 243.49 187.287 237.263 182.815C229.703 177.385 223.569 171.674 219.081 163.365C216.459 158.513 214.265 153.552 212.918 148.187C212.433 146.257 212.422 144.062 211.828 142.201C211.371 140.768 210.33 139.766 209.717 138.282C202.195 150.846 192.225 161.358 183.083 172.686C178.715 178.098 173.733 183.239 168.514 187.947C166.965 189.344 165.52 190.803 164.074 192.307C162.865 193.565 160.946 194.684 159.925 196.08C158.945 197.419 159.187 197.355 160.677 198.419C162.648 199.825 164.819 200.993 166.821 202.363C170.02 204.554 173.512 206.406 176.373 209.043C179.467 211.895 182.169 215.198 184.874 218.414C186.676 220.557 189.041 223.308 189.494 226.018C189.644 226.914 190.214 229.132 189.462 229.789C188.819 230.35 188.884 230.137 188.085 229.795C187.039 229.346 186.732 228.317 185.454 227.826C182.184 226.572 178.228 227.003 174.826 226.987C171.423 226.972 167.992 227.354 164.59 227.34C156.822 227.308 149.22 227.937 141.455 228.275C133.207 228.633 124.859 227.773 116.639 227.895C110.548 227.985 104.296 227.53 98.0371 227.868C94.8178 228.042 91.6562 227.639 88.5173 227.594C84.4076 227.535 80.187 228.094 76.0421 228.174C69.239 228.305 62.519 228.304 55.6743 228.468C40.9514 228.82 26.3081 229.184 11.5766 229.417C9.61152 229.448 7.46025 229.382 5.51835 229.603C3.45725 229.838 4.52132 230.276 3.10714 231.018C-0.851953 233.095 0.0623464 225.396 0.157227 223.882C0.666129 215.768 2.72605 207.81 5.20156 200.106C7.55003 192.8 9.45665 185.153 11.4456 177.689C13.6228 169.52 16.4594 161.685 19.0352 153.596C21.6746 145.307 23.8235 136.694 28.6173 129.347C29.7092 127.673 30.8376 125.873 32.5941 124.818C34.563 123.635 34.6477 124.325 34.6462 122.161C34.645 120.122 34.7704 117.398 34.2894 115.453C33.8546 113.695 33.9216 114.737 32.9426 113.475C32.1459 112.448 31.3124 111.746 30.7408 110.5C27.2294 114.06 19.1917 112.181 15.7991 109.617C11.6467 106.479 8.48394 101.185 7.32499 96.1433C6.39422 92.0945 7.53631 84.3766 12.0176 82.4296C14.2022 81.4804 22.2263 80.763 22.5474 77.6695C22.7128 76.0727 19.8888 73.8273 19.2371 72.4543C18.0296 69.9105 16.8699 66.527 16.5342 63.7386C15.8787 58.296 18.3495 52.2099 22.2855 48.5335C29.5058 41.7892 42.2099 38.328 51.4976 42.607C49.5349 35.1095 48.3501 28.6416 49.3385 20.8426C50.19 14.1238 54.1542 10.3647 59.609 7.01797C68.9175 1.30635 81.5757 -0.948036 92.2192 0.712758C94.6378 1.09032 96.9589 1.89994 99.1984 2.5441C102.452 3.47996 106.347 3.16827 109.418 4.68871C111.646 5.7908 113.337 7.98638 115.293 9.45231C117.577 11.1637 119.474 13.718 121.061 16.0802C124.454 21.1316 123.129 30.5067 120.288 35.5773C119.68 36.6649 118.927 37.5804 117.92 38.3225C116.87 39.0949 115.271 39.3352 114.73 40.337C113.346 42.903 114.681 48.4582 114.866 51.2317C115.081 54.4522 113.453 56.8712 109.801 57.128C107.689 57.277 107.622 56.0514 106.61 58.5732C105.954 60.2077 105.359 61.9885 104.413 63.4869C102.462 66.5752 98.8898 66.2737 95.6356 66.1902C91.8687 66.093 88.1581 65.4978 84.3892 65.1222C85.3847 68.3117 88.1095 70.7872 89.8111 73.6285C92.1117 77.4716 93.4965 80.6571 93.8706 85.1345C94.1576 88.5745 93.5381 91.2911 91.1841 93.8513C90.2098 94.9111 89.3461 94.9632 89.588 96.1857C89.7354 96.9314 91.0249 98.1617 91.4813 98.7569C92.6885 100.331 94.0901 101.777 95.1526 103.458C99.2411 109.928 100.449 119.791 100.459 127.322C100.459 127.668 100.644 128.402 100.491 128.759C100.378 129.023 99.5202 129.859 99.5077 129.93C99.3399 130.899 100.284 132.559 101.766 132.723C103.322 132.895 106.172 131.597 107.619 131.17C109.935 130.487 112.297 129.983 114.608 129.282C118.341 128.149 122.056 127.246 125.851 126.358C127.566 125.957 129.29 125.623 131.011 125.248C132.97 124.822 133.881 123.997 134.892 125.991C135.76 127.702 135.22 128.012 137.322 127.15C139.409 126.293 141.448 125.232 143.486 124.265C147.079 122.56 151.359 121.04 154.459 118.524C159.63 114.325 161.545 107.639 166.494 103.184C167.872 101.943 168.695 101.921 169.566 100.203C170.498 98.3636 170.979 96.0049 171.47 94.0266C172.329 90.5623 172.94 87.0858 173.719 83.6247C174.689 79.3127 176.786 75.4077 178.317 71.2949C178.913 69.6926 179.222 67.6558 180.184 66.2157C180.438 65.8338 180.925 65.6186 181.124 65.3026C181.808 64.2177 181.801 63.9198 181.979 62.6146C182.808 56.516 186.448 59.7243 190.426 61.1228C192.102 61.712 200.061 65.5335 197.022 68.0749C200.644 69.126 206.447 68.5548 206.398 73.7465C206.373 76.4067 204.782 79.2523 203.928 81.7423C203.169 83.9532 202.436 86.1727 201.666 88.38C199.978 93.2154 197.93 97.9061 196.283 102.756C195.532 104.967 194.913 107.229 193.868 109.315C192.946 111.156 190.714 113.184 190.346 115.197C200 111.078 208.931 105.123 219.736 105.503C224.468 105.669 228.762 107.658 231.375 111.818C234.651 117.032 236.807 122.871 240.009 128.133C251.657 147.277 265.551 164.67 278.338 183.021C279.32 184.432 280.584 185.765 280.924 187.508C281.147 188.645 280.715 189.782 280.982 190.874C281.535 193.145 284.33 195.979 286.226 197.283C289.858 199.784 295.764 203.311 300.298 202.999C297.452 196.161 297.49 188.669 297.622 181.375C297.748 174.447 298.497 167.575 299.386 160.718C299.587 159.166 299.762 157.728 300.208 156.225C300.72 154.5 301.422 154.663 299.89 153.113C297.531 150.725 294.726 148.76 292.348 146.343C287.205 141.115 281.934 137.017 277.886 130.775C274.037 124.837 269.976 118.727 267.126 112.225C264.193 105.531 263.02 98.3824 261.564 91.2935C260.973 88.4169 258.818 85.2055 259.251 82.2014C259.799 78.4051 261.559 81.1695 262.276 83.2126C264.463 89.4492 269.583 95.031 273.825 100.047C278.407 105.465 284.012 109.999 288.795 115.259C294.004 120.989 297.572 127.574 302.203 133.69C302.203 126.1 299.612 118.37 298.552 110.862C297.619 104.252 297.326 97.6226 296.736 90.9849C295.397 75.9068 296.555 60.3845 298.434 45.4142C299.327 38.3045 298.82 31.3622 298.847 24.2281C298.856 21.9577 297.916 16.7248 299.114 14.7099C301.408 10.8508 302.746 19.2893 302.862 20.5474C303.556 28.0422 302.312 35.4534 302.947 42.916C303.611 50.7091 305.053 58.2834 306.279 65.9864C307.608 74.3268 309.771 82.479 311.842 90.6595C314.016 99.2485 315.845 108.017 318.262 116.537C318.914 113.859 317.999 110.569 317.819 107.841C317.561 103.938 317.057 100.033 317.013 96.1198C316.944 89.8824 316.895 83.5294 317.248 77.321C317.596 71.2016 317.49 64.7894 319.367 58.8939C320.258 56.0957 321.564 53.3657 322.843 50.7299C324.419 47.4796 324.977 44.3282 325.85 40.8714C326.598 37.9109 327.693 35.0284 328.191 32.0087C328.501 30.1307 329.365 24.5869 331.515 28.7871C332.764 31.225 332.224 34.839 332.259 37.458C332.304 40.8157 331.79 44.0804 331.711 47.424C331.558 53.984 331.448 60.5362 330.958 67.0853C330.445 73.9563 330.893 80.1141 332.2 86.8843C333.631 94.2951 334.05 101.722 334.791 109.223C335.173 113.097 335.818 116.948 336.129 120.827C336.294 122.881 335.449 128.771 336.921 130.234C337.064 126.676 338.083 123.116 338.856 119.649C339.771 115.542 340.141 111.225 340.816 107.059C341.908 100.31 344.029 93.8646 345.431 87.1913C348.323 73.4348 350.726 55.7546 362.844 46.7504C364.429 45.5722 366.171 44.7026 367.886 43.7331C368.856 43.1842 370.298 41.7641 371.408 41.5163C372.62 41.2458 373.125 41.4559 373.616 42.8619C374.301 44.8218 373.049 45.7373 371.879 47.1609C367.832 52.0868 366.103 58.4014 363.604 64.1785C357.881 77.4073 355.349 91.3601 355.32 105.66C355.305 113.145 354.789 120.365 353.99 127.805C353.131 135.813 352 144.281 349.567 151.984C352.007 152.531 354.654 151.716 355.317 154.552C355.479 155.249 355.185 156.072 355.365 156.979C355.54 157.861 355.961 158.737 356.21 159.604C356.724 161.397 356.996 163.166 357.246 165.007C358.214 172.122 359.874 178.89 360.051 186.104C360.214 192.773 358.908 199.529 357.706 206.07C356.494 212.657 353.018 218.273 350.282 224.23C351.46 224.23 352.637 224.242 353.815 224.255Z" fill="black"/>
<path fill-rule="evenodd" clip-rule="evenodd" d="M198.948 209.112C197.65 209.479 191.386 210.171 191.387 212.137C191.387 213.316 197.644 213.293 198.751 213.421C198.817 211.985 198.883 210.549 198.948 209.112ZM212.777 222.677C216.387 223.364 221.287 222.398 223.595 219.216C224.674 217.728 225.185 215.467 225.536 213.692C225.872 212 226.907 207.78 226.203 206.194C225.338 204.247 217.043 206.282 214.628 206.506C210.413 206.894 206.055 206.94 201.838 206.665C201.838 211.02 201.616 215.264 204.177 219.011C206.025 221.715 209.494 222.354 212.777 222.677ZM212.051 228.055C208.128 226.62 204.01 227.553 201.456 223.342C200.808 222.273 200.262 221.125 199.87 219.938C199.678 219.418 199.529 218.885 199.423 218.34C199.623 217.166 199.193 216.835 198.133 217.347C196.054 216.943 193.774 218.37 191.584 217.949C186.273 216.929 187.237 209.32 190.802 206.686C191.506 206.166 192.21 206.021 193.016 205.764C194.793 205.198 195.754 205.83 197.379 205.669C198.693 205.539 199.054 204.162 200.465 203.556C201.389 203.159 202.672 203.189 203.644 203.149C208.728 202.94 213.829 202.942 218.945 202.611C221.332 202.457 223.909 202.835 226.246 202.427C227.341 202.236 227.184 201.507 228.221 202.146C229.294 202.808 228.83 205.255 228.776 206.231C228.463 211.874 228.127 217.926 225.104 222.859C222.338 227.373 216.896 227.835 212.051 228.055Z" fill="black"/>
<path fill-rule="evenodd" clip-rule="evenodd" d="M4.88776 229.61C6.14982 229.596 7.41149 229.583 8.66924 229.57C7.40561 229.584 6.14668 229.597 4.88776 229.61Z" fill="#D71E78"/>
<path fill-rule="evenodd" clip-rule="evenodd" d="M355.328 109.294C355.326 108.082 355.323 106.87 355.32 105.66C355.322 106.873 355.325 108.083 355.328 109.294Z" fill="#D71E78"/>
<path fill-rule="evenodd" clip-rule="evenodd" d="M34.2931 114.272C34.2892 115.453 34.2853 116.634 34.2814 117.812C34.2849 116.631 34.2888 115.451 34.2931 114.272Z" fill="#D71E78"/>
<path fill-rule="evenodd" clip-rule="evenodd" d="M139.198 228.271C140.202 228.273 141.206 228.274 142.206 228.277C141.2 228.276 140.2 228.274 139.198 228.271Z" fill="#D71E78"/>
<path fill-rule="evenodd" clip-rule="evenodd" d="M78.233 228.03C79.2371 228.033 80.2408 228.037 81.2402 228.04C80.2345 228.038 79.234 228.034 78.233 228.03Z" fill="#D71E78"/>
<path fill-rule="evenodd" clip-rule="evenodd" d="M297.755 178.986C297.711 179.783 297.666 180.58 297.622 181.376C297.667 180.578 297.711 179.782 297.755 178.986Z" fill="#D71E78"/>
<path fill-rule="evenodd" clip-rule="evenodd" d="M353.815 224.254C353.039 224.246 352.263 224.238 351.487 224.23C352.267 223.905 353.043 223.92 353.815 224.254Z" fill="#D71E78"/>
<path fill-rule="evenodd" clip-rule="evenodd" d="M284.926 227.784C285.484 227.775 286.04 227.767 286.592 227.757C286.034 227.766 285.48 227.775 284.926 227.784Z" fill="#D71E78"/>
<path fill-rule="evenodd" clip-rule="evenodd" d="M355.026 119.13C355.04 118.527 355.053 117.925 355.067 117.325C355.053 117.928 355.04 118.529 355.026 119.13Z" fill="#D71E78"/>
<path fill-rule="evenodd" clip-rule="evenodd" d="M302.947 42.916C302.901 42.2946 302.855 41.6736 302.809 41.0537C302.855 41.6755 302.901 42.2958 302.947 42.916Z" fill="#D71E78"/>
<path fill-rule="evenodd" clip-rule="evenodd" d="M355.301 111.667C355.308 111.044 355.316 110.421 355.323 109.801C355.316 110.424 355.308 111.046 355.301 111.667Z" fill="#D71E78"/>
<path fill-rule="evenodd" clip-rule="evenodd" d="M180.171 227.011C180.666 227.019 181.161 227.026 181.652 227.032C181.156 227.024 180.663 227.018 180.171 227.011Z" fill="#D71E78"/>
<path fill-rule="evenodd" clip-rule="evenodd" d="M307.712 228.027C308.196 228.036 308.68 228.046 309.16 228.056C308.674 228.047 308.193 228.037 307.712 228.027Z" fill="#D71E78"/>
<path fill-rule="evenodd" clip-rule="evenodd" d="M359.996 184.23C359.961 183.683 359.926 183.137 359.892 182.592C359.927 183.138 359.961 183.684 359.996 184.23Z" fill="#D71E78"/>
<path fill-rule="evenodd" clip-rule="evenodd" d="M351.306 228.558C351.7 228.556 352.094 228.554 352.484 228.553C352.088 228.555 351.697 228.557 351.306 228.558Z" fill="#D71E78"/>
<path fill-rule="evenodd" clip-rule="evenodd" d="M297.625 228.052C298.015 228.043 298.406 228.033 298.792 228.024C298.4 228.034 298.012 228.043 297.625 228.052Z" fill="#D71E78"/>
<path fill-rule="evenodd" clip-rule="evenodd" d="M209.925 227.754C210.354 227.752 210.784 227.749 211.209 227.746C210.778 227.749 210.352 227.751 209.925 227.754Z" fill="#D71E78"/>
<path fill-rule="evenodd" clip-rule="evenodd" d="M110.885 227.752C111.293 227.755 111.702 227.758 112.106 227.762C111.696 227.759 111.29 227.756 110.885 227.752Z" fill="#D71E78"/>
<path fill-rule="evenodd" clip-rule="evenodd" d="M86.7922 227.818C87.2086 227.795 87.6241 227.772 88.0366 227.749C87.619 227.773 87.2058 227.795 86.7922 227.818Z" fill="#D71E78"/>
<path fill-rule="evenodd" clip-rule="evenodd" d="M202.14 69.1814C201.521 69.1281 200.901 69.0748 200.282 69.0211C200.902 69.0646 201.558 68.6976 202.14 69.1814Z" fill="#D71E78"/>
<path fill-rule="evenodd" clip-rule="evenodd" d="M360.054 224.49C359.443 224.429 358.833 224.367 358.222 224.305C358.833 224.367 359.443 224.429 360.054 224.49Z" fill="#D71E78"/>
<path fill-rule="evenodd" clip-rule="evenodd" d="M317.448 72.9421C317.407 73.4773 317.365 74.0129 317.325 74.5465C317.366 74.0105 317.407 73.4761 317.448 72.9421Z" fill="#D71E78"/>
<path fill-rule="evenodd" clip-rule="evenodd" d="M355.454 95.2554C355.496 94.7481 355.538 94.2407 355.579 93.7354C355.538 94.2435 355.496 94.7492 355.454 95.2554Z" fill="#D71E78"/>
<path fill-rule="evenodd" clip-rule="evenodd" d="M317.204 81.2439C317.16 81.7783 317.116 82.3123 317.073 82.8447C317.117 82.3099 317.16 81.7767 317.204 81.2439Z" fill="#D71E78"/>
<path fill-rule="evenodd" clip-rule="evenodd" d="M355.195 115.736C355.192 115.22 355.188 114.704 355.184 114.189C355.517 114.704 355.504 115.219 355.195 115.736Z" fill="#D71E78"/>
<path fill-rule="evenodd" clip-rule="evenodd" d="M297.764 189.889C297.759 190.406 297.755 190.924 297.749 191.439C297.407 190.917 297.476 190.402 297.764 189.889Z" fill="#D71E78"/>
<path fill-rule="evenodd" clip-rule="evenodd" d="M336.697 130.011C336.638 129.488 336.578 128.963 336.518 128.441C336.578 128.966 336.638 129.489 336.697 130.011Z" fill="#D71E78"/>
<path fill-rule="evenodd" clip-rule="evenodd" d="M14.3143 81.9324C13.9093 82.4675 13.3576 82.101 12.8762 82.166C13.356 82.088 13.8352 82.0104 14.3143 81.9324Z" fill="#D71E78"/>
<path fill-rule="evenodd" clip-rule="evenodd" d="M214.579 202.982C214.067 202.983 213.555 202.983 213.044 202.984C213.556 202.983 214.067 202.983 214.579 202.982Z" fill="#D71E78"/>
<path fill-rule="evenodd" clip-rule="evenodd" d="M296.323 84.1313C296.371 84.5665 296.419 85.0017 296.467 85.4354C296.419 84.9994 296.371 84.5654 296.323 84.1313Z" fill="#D71E78"/>
<path fill-rule="evenodd" clip-rule="evenodd" d="M43.4611 40.9093C42.9468 40.9195 42.4324 40.9297 41.918 40.9399C42.4269 40.6404 42.9397 40.5537 43.4611 40.9093Z" fill="#D71E78"/>
<path fill-rule="evenodd" clip-rule="evenodd" d="M317.192 88.772C317.158 89.2283 317.125 89.6843 317.092 90.1387C317.125 89.6823 317.158 89.2272 317.192 88.772Z" fill="#D71E78"/>
<path fill-rule="evenodd" clip-rule="evenodd" d="M303.085 32.7524C303.125 32.3364 303.165 31.9205 303.205 31.5068C303.165 31.9236 303.125 32.338 303.085 32.7524Z" fill="#D71E78"/>
<path fill-rule="evenodd" clip-rule="evenodd" d="M299.043 31.4492C299.003 31.9005 298.963 32.3521 298.923 32.8018C298.963 32.3498 299.003 31.8993 299.043 31.4492Z" fill="#D71E78"/>
<path fill-rule="evenodd" clip-rule="evenodd" d="M75.6072 1.30249C75.0838 1.36601 74.5604 1.42952 74.0374 1.49264C74.5608 1.42913 75.0838 1.36601 75.6072 1.30249Z" fill="#D71E78"/>
<path fill-rule="evenodd" clip-rule="evenodd" d="M37.8026 41.2683C37.2655 41.3232 36.7283 41.3781 36.1916 41.433C36.7287 41.3781 37.2659 41.3232 37.8026 41.2683Z" fill="#D71E78"/>
<path fill-rule="evenodd" clip-rule="evenodd" d="M332.14 42.5912C332.173 42.1713 332.206 41.751 332.238 41.3335C332.206 41.7538 332.173 42.1725 332.14 42.5912Z" fill="#D71E78"/>
<path fill-rule="evenodd" clip-rule="evenodd" d="M20.1732 111.892C20.4825 111.896 20.7914 111.901 21.0961 111.905C20.7856 111.901 20.4794 111.896 20.1732 111.892Z" fill="#D71E78"/>
<path fill-rule="evenodd" clip-rule="evenodd" d="M299.059 163.717C299.028 164.182 298.997 164.646 298.966 165.11C298.998 164.645 299.029 164.181 299.059 163.717Z" fill="#D71E78"/>
<path fill-rule="evenodd" clip-rule="evenodd" d="M330.615 73.2276C330.602 72.7795 330.59 72.3317 330.577 71.8848C330.59 72.3333 330.602 72.7802 330.615 73.2276Z" fill="#D71E78"/>
<path fill-rule="evenodd" clip-rule="evenodd" d="M88.7831 0.242404C88.306 0.242404 87.8288 0.242796 87.3525 0.242796C87.8296 -0.0849715 88.3064 -0.0767381 88.7831 0.242404Z" fill="#D71E78"/>
<path fill-rule="evenodd" clip-rule="evenodd" d="M216.17 105.718C215.647 105.731 215.125 105.744 214.603 105.758C215.116 105.395 215.639 105.385 216.17 105.718Z" fill="#D71E78"/>
<path fill-rule="evenodd" clip-rule="evenodd" d="M261.842 226.993C262.151 226.999 262.462 227.006 262.767 227.014C262.456 227.008 262.149 227 261.842 226.993Z" fill="#D71E78"/>
<path fill-rule="evenodd" clip-rule="evenodd" d="M273.508 227.538C273.818 227.527 274.127 227.516 274.432 227.505C274.122 227.516 273.815 227.527 273.508 227.538Z" fill="#D71E78"/>
<path fill-rule="evenodd" clip-rule="evenodd" d="M90.9246 227.753C91.2473 227.761 91.57 227.769 91.8883 227.777C91.5645 227.769 91.2445 227.761 90.9246 227.753Z" fill="#D71E78"/>
<path fill-rule="evenodd" clip-rule="evenodd" d="M359.728 179.045C359.682 178.602 359.636 178.158 359.59 177.717C359.636 178.161 359.682 178.603 359.728 179.045Z" fill="#D71E78"/>
<path fill-rule="evenodd" clip-rule="evenodd" d="M317.587 104.356C317.624 104.779 317.66 105.201 317.696 105.62C317.66 105.198 317.623 104.777 317.587 104.356Z" fill="#D71E78"/>
<path fill-rule="evenodd" clip-rule="evenodd" d="M333.804 97.1073C333.754 96.6595 333.704 96.2118 333.654 95.7656C333.704 96.2138 333.754 96.6603 333.804 97.1073Z" fill="#D71E78"/>
<path fill-rule="evenodd" clip-rule="evenodd" d="M93.5423 228.02C93.8677 228.015 94.1935 228.01 94.5154 228.005C94.1884 228.011 93.8654 228.015 93.5423 228.02Z" fill="#D71E78"/>
<path fill-rule="evenodd" clip-rule="evenodd" d="M212.051 228.055C212.368 228.041 212.684 228.027 212.997 228.012C212.68 228.027 212.365 228.041 212.051 228.055Z" fill="#D71E78"/>
<path fill-rule="evenodd" clip-rule="evenodd" d="M331.157 64.4131C331.143 63.9594 331.129 63.5058 331.115 63.053C331.129 63.507 331.143 63.9598 331.157 64.4131Z" fill="#D71E78"/>
<path fill-rule="evenodd" clip-rule="evenodd" d="M62.6854 228.316C63.003 228.314 63.3202 228.311 63.6334 228.309C63.3143 228.312 63.0003 228.314 62.6854 228.316Z" fill="#D71E78"/>
<path fill-rule="evenodd" clip-rule="evenodd" d="M331.024 228.312C331.351 228.315 331.677 228.318 331.999 228.322C331.671 228.319 331.348 228.315 331.024 228.312Z" fill="#D71E78"/>
<path fill-rule="evenodd" clip-rule="evenodd" d="M338.072 228.273C338.387 228.295 338.702 228.318 339.013 228.34C338.697 228.317 338.384 228.295 338.072 228.273Z" fill="#D71E78"/>
<path fill-rule="evenodd" clip-rule="evenodd" d="M340.918 228.267C341.239 228.277 341.56 228.287 341.877 228.294C341.555 228.284 341.237 228.276 340.918 228.267Z" fill="#D71E78"/>
<path fill-rule="evenodd" clip-rule="evenodd" d="M355.533 98.9054C355.512 98.4592 355.491 98.0126 355.47 97.5676C355.491 98.0146 355.512 98.46 355.533 98.9054Z" fill="#D71E78"/>
<path fill-rule="evenodd" clip-rule="evenodd" d="M140.158 222.419C141.133 222.369 142.11 222.318 143.086 222.267C142.11 222.318 141.133 222.368 140.158 222.419Z" fill="#D71E78"/>
<path fill-rule="evenodd" clip-rule="evenodd" d="M81.2734 60.1829C82.1206 60.2566 82.9679 60.3303 83.8144 60.4032C82.9671 60.3299 82.1202 60.2562 81.2734 60.1829Z" fill="#D71E78"/>
<path fill-rule="evenodd" clip-rule="evenodd" d="M320.492 97.0183C320.518 97.8268 320.545 98.6352 320.571 99.4413C320.545 98.6324 320.518 97.8256 320.492 97.0183Z" fill="#D71E78"/>
<path fill-rule="evenodd" clip-rule="evenodd" d="M337.977 223.801C338.862 223.855 339.746 223.908 340.63 223.962C339.74 224.002 338.837 224.256 337.977 223.801Z" fill="#D71E78"/>
<path fill-rule="evenodd" clip-rule="evenodd" d="M332.743 128.174C332.75 127.403 332.756 126.632 332.763 125.862C332.756 126.634 332.75 127.404 332.743 128.174Z" fill="#D71E78"/>
<path fill-rule="evenodd" clip-rule="evenodd" d="M330.479 152.404C331.255 152.414 332.032 152.425 332.807 152.435C332.031 152.424 331.255 152.414 330.479 152.404Z" fill="#D71E78"/>
<path fill-rule="evenodd" clip-rule="evenodd" d="M135.119 138.846C135.099 139.433 135.08 140.021 135.061 140.606C135.081 140.018 135.1 139.432 135.119 138.846Z" fill="#D71E78"/>
<path fill-rule="evenodd" clip-rule="evenodd" d="M343.395 113.96C343.363 114.545 343.332 115.129 343.301 115.711C343.333 115.126 343.364 114.543 343.395 113.96Z" fill="#D71E78"/>
<path fill-rule="evenodd" clip-rule="evenodd" d="M326.839 221.199C327.403 221.16 327.968 221.122 328.531 221.086C328.106 221.426 327.679 221.454 326.839 221.199Z" fill="#D71E78"/>
<path fill-rule="evenodd" clip-rule="evenodd" d="M323.06 144.746C323.099 145.377 323.138 146.007 323.176 146.636C323.137 146.005 323.099 145.376 323.06 144.746Z" fill="#D71E78"/>
<path fill-rule="evenodd" clip-rule="evenodd" d="M111.966 45.2383C111.972 44.6295 111.978 44.0206 111.984 43.4141C111.978 44.0237 111.972 44.631 111.966 45.2383Z" fill="#D71E78"/>
<path fill-rule="evenodd" clip-rule="evenodd" d="M323.744 152.531L325.848 152.485C325.154 152.821 324.452 152.833 323.744 152.531Z" fill="#D71E78"/>
<path fill-rule="evenodd" clip-rule="evenodd" d="M343.157 157.024C342.66 157.029 342.164 157.033 341.671 157.038C342.169 157.034 342.663 157.029 343.157 157.024Z" fill="#D71E78"/>
<path fill-rule="evenodd" clip-rule="evenodd" d="M161.445 221.441C162.132 221.45 162.819 221.459 163.506 221.468C162.814 221.815 162.126 221.864 161.445 221.441Z" fill="#D71E78"/>
<path fill-rule="evenodd" clip-rule="evenodd" d="M320.734 102.211C320.768 102.843 320.802 103.476 320.836 104.107C320.802 103.474 320.768 102.842 320.734 102.211Z" fill="#D71E78"/>
<path fill-rule="evenodd" clip-rule="evenodd" d="M98.2194 61.6682C98.8071 61.3785 99.3995 61.3298 99.9978 61.6368C99.4046 61.6474 98.8122 61.658 98.2194 61.6682Z" fill="#D71E78"/>
<path fill-rule="evenodd" clip-rule="evenodd" d="M301.509 109.518C301.558 110.051 301.607 110.585 301.655 111.117C301.606 110.583 301.558 110.05 301.509 109.518Z" fill="#D71E78"/>
<path fill-rule="evenodd" clip-rule="evenodd" d="M351.156 97.0626C350.854 96.5404 350.864 96.0209 351.171 95.5061C351.166 96.0256 351.161 96.5443 351.156 97.0626Z" fill="#D71E78"/>
<path fill-rule="evenodd" clip-rule="evenodd" d="M320.83 78.9331C320.83 79.4612 320.83 79.9897 320.83 80.5163C320.83 79.987 320.83 79.46 320.83 78.9331Z" fill="#D71E78"/>
<path fill-rule="evenodd" clip-rule="evenodd" d="M341.897 152.151C342.502 151.966 343.107 151.704 343.709 152.158C343.105 152.156 342.502 152.153 341.897 152.151Z" fill="#D71E78"/>
<path fill-rule="evenodd" clip-rule="evenodd" d="M62.9615 222.181C63.519 221.936 64.0753 221.808 64.6246 222.2C64.0699 222.193 63.5159 222.188 62.9615 222.181Z" fill="#D71E78"/>
<path fill-rule="evenodd" clip-rule="evenodd" d="M176.999 221.395C177.596 221.135 178.19 220.992 178.779 221.413C178.185 221.407 177.592 221.401 176.999 221.395Z" fill="#D71E78"/>
<path fill-rule="evenodd" clip-rule="evenodd" d="M44.2892 144.265C44.3339 144.804 44.379 145.342 44.4233 145.879C44.3782 145.34 44.3335 144.803 44.2892 144.265Z" fill="#D71E78"/>
<path fill-rule="evenodd" clip-rule="evenodd" d="M182.698 113.259C183.285 113.046 183.869 112.935 184.445 113.291C183.863 113.28 183.281 113.27 182.698 113.259Z" fill="#D71E78"/>
<path fill-rule="evenodd" clip-rule="evenodd" d="M320.725 129.283C320.757 129.809 320.79 130.336 320.822 130.86C320.789 130.334 320.757 129.809 320.725 129.283Z" fill="#D71E78"/>
<path fill-rule="evenodd" clip-rule="evenodd" d="M43.9103 81.8071C43.8617 82.231 43.8131 82.6552 43.7648 83.0766C43.8134 82.652 43.8617 82.2298 43.9103 81.8071Z" fill="#D71E78"/>
<path fill-rule="evenodd" clip-rule="evenodd" d="M9.91333 204.716C9.88314 205.129 9.85334 205.542 9.82355 205.952C9.85452 205.538 9.88393 205.127 9.91333 204.716Z" fill="#D71E78"/>
<path fill-rule="evenodd" clip-rule="evenodd" d="M333.003 132.068C332.97 131.641 332.937 131.214 332.904 130.79C332.937 131.217 332.97 131.643 333.003 132.068Z" fill="#D71E78"/>
<path fill-rule="evenodd" clip-rule="evenodd" d="M134.921 142.476C135.018 142.786 135.116 143.097 135.214 143.408C134.562 143.566 134.464 143.255 134.921 142.476Z" fill="#D71E78"/>
<path fill-rule="evenodd" clip-rule="evenodd" d="M174.109 112.557C174.639 112.555 175.17 112.553 175.701 112.551C175.171 112.802 174.641 112.975 174.109 112.557Z" fill="#D71E78"/>
<path fill-rule="evenodd" clip-rule="evenodd" d="M44.5868 146.814C44.6048 147.284 44.6229 147.755 44.6401 148.224C44.6217 147.753 44.604 147.284 44.5868 146.814Z" fill="#D71E78"/>
<path fill-rule="evenodd" clip-rule="evenodd" d="M302.798 151.775C302.817 152.208 302.836 152.641 302.856 153.072C302.837 152.638 302.817 152.207 302.798 151.775Z" fill="#D71E78"/>
<path fill-rule="evenodd" clip-rule="evenodd" d="M39.3246 223.224C39.8284 222.889 40.3334 222.918 40.8391 223.218C40.3342 223.22 39.8292 223.222 39.3246 223.224Z" fill="#D71E78"/>
<path fill-rule="evenodd" clip-rule="evenodd" d="M52.5911 75.7549C52.6182 76.1971 52.6456 76.6398 52.6739 77.0793C52.6468 76.6363 52.619 76.1956 52.5911 75.7549Z" fill="#D71E78"/>
<path fill-rule="evenodd" clip-rule="evenodd" d="M36.7034 223.27C37.2272 223.272 37.751 223.274 38.2744 223.276C37.7491 223.634 37.2257 223.651 36.7034 223.27Z" fill="#D71E78"/>
<path fill-rule="evenodd" clip-rule="evenodd" d="M326.75 68.8124C326.754 68.3631 326.758 67.9142 326.762 67.4661C326.757 67.9158 326.754 68.3639 326.75 68.8124Z" fill="#D71E78"/>
<path fill-rule="evenodd" clip-rule="evenodd" d="M86.2757 60.9551C86.7768 61.0206 87.2778 61.086 87.7785 61.1511C87.2774 61.0856 86.7764 61.0206 86.2757 60.9551Z" fill="#D71E78"/>
<path fill-rule="evenodd" clip-rule="evenodd" d="M42.0602 99.7302C42.0669 100.15 42.0736 100.57 42.0814 100.987C42.0747 100.567 42.0677 100.149 42.0602 99.7302Z" fill="#D71E78"/>
<path fill-rule="evenodd" clip-rule="evenodd" d="M330.123 99.67C330.095 99.2426 330.068 98.8153 330.04 98.3899C330.068 98.818 330.096 99.2442 330.123 99.67Z" fill="#D71E78"/>
<path fill-rule="evenodd" clip-rule="evenodd" d="M213.259 222.769C213.877 222.825 214.495 222.881 215.113 222.937C214.495 222.881 213.877 222.825 213.259 222.769Z" fill="#D71E78"/>
<path fill-rule="evenodd" clip-rule="evenodd" d="M211.193 206.763C210.859 206.769 210.525 206.774 210.194 206.781C210.529 206.777 210.861 206.77 211.193 206.763Z" fill="#D71E78"/>
<path fill-rule="evenodd" clip-rule="evenodd" d="M211.221 222.524C211.74 222.575 212.259 222.626 212.777 222.677C212.258 222.626 211.74 222.575 211.221 222.524Z" fill="#D71E78"/>
<path fill-rule="evenodd" clip-rule="evenodd" d="M117.901 187.603C118.576 191.416 112.651 195.144 112.181 189.725C112.009 187.743 113.335 186.349 114.819 185.138C116.925 183.419 118.101 185.065 117.901 187.603Z" fill="black"/>
<path fill-rule="evenodd" clip-rule="evenodd" d="M52.5936 141.09C53.9893 141.661 64.6531 145.136 59.114 146.884C57.6477 147.346 55.4313 147.415 54.1603 146.6C52.6312 145.619 51.0888 142.725 52.5936 141.09Z" fill="black"/>
<path fill-rule="evenodd" clip-rule="evenodd" d="M55.2178 89.4603C58.8373 89.04 62.1722 94.9849 57.7097 94.792C54.4615 94.6512 50.093 89.4603 55.2178 89.4603Z" fill="black"/>
<path fill-rule="evenodd" clip-rule="evenodd" d="M68.1658 104.037C71.1883 106.674 65.5861 112.575 63.3619 110.291C62.226 109.124 63.2736 106.611 64.2111 105.635C65.1732 104.633 66.885 104.445 68.1658 104.037Z" fill="black"/>
<path fill-rule="evenodd" clip-rule="evenodd" d="M77.1639 172.401C75.3797 172.684 67.5328 175.248 69.1693 170.591C69.7935 168.815 71.5343 169.342 73.1257 169.423C75.6906 169.554 77.1639 169.432 77.1639 172.401Z" fill="black"/>
<path fill-rule="evenodd" clip-rule="evenodd" d="M71.995 184.397C74.6662 185.826 70.7616 193.824 68.5476 192.122C65.4757 189.761 69.6771 185.115 71.995 184.397Z" fill="black"/>
<path fill-rule="evenodd" clip-rule="evenodd" d="M83.6448 177.968C84.9438 177.438 91.0667 183.328 88.7358 184.966C87.5412 185.806 85.2778 184.366 84.5576 183.498C83.2073 181.87 83.085 179.862 83.6448 177.968Z" fill="black"/>
<path fill-rule="evenodd" clip-rule="evenodd" d="M48.3188 129.828C49.6463 130.046 51.9384 130.115 52.0242 131.981C52.0995 133.62 50.0439 134.151 48.5968 134.28C47.0952 134.413 45.1074 133.99 45.0788 132.102C45.0486 130.065 48.2718 130.188 48.3188 129.828Z" fill="black"/>
<path fill-rule="evenodd" clip-rule="evenodd" d="M81.0554 211.007C82.4692 211.865 89.0638 214.955 86.237 217.188C85.1792 218.023 81.9725 216.298 81.2507 215.421C80.3893 214.374 79.5475 211.922 81.0554 211.007Z" fill="black"/>
<path fill-rule="evenodd" clip-rule="evenodd" d="M99.3876 188.583C99.1833 185.172 104.938 183.814 103.745 188.656C103.409 190.021 103.083 192.093 101.395 192.172C99.4005 192.266 99.3283 189.905 99.3876 188.583Z" fill="black"/>
<path fill-rule="evenodd" clip-rule="evenodd" d="M81.6107 129.267C81.6507 131.855 76.6926 134.136 76.6542 130.035C76.6201 126.37 81.7958 125.297 81.6107 129.267Z" fill="black"/>
<path fill-rule="evenodd" clip-rule="evenodd" d="M78.3367 115.79C79.5584 116.184 81.1819 116.386 81.2894 117.939C81.4035 119.581 79.8775 120.313 78.5045 120.22C77.3785 120.145 75.7122 119.311 75.5076 118.09C75.2076 116.296 76.9578 116.179 78.3367 115.79Z" fill="black"/>
<path fill-rule="evenodd" clip-rule="evenodd" d="M55.6195 163.165C55.5987 161.029 59.8777 158.463 60.6658 160.941C60.9178 161.734 58.9011 165.288 58.2302 165.555C56.4554 166.259 56.2076 164.617 55.6195 163.165Z" fill="black"/>
<path fill-rule="evenodd" clip-rule="evenodd" d="M90.6836 198.703C89.2377 199.997 84.9002 203.632 85.2245 198.752C85.4315 195.634 91.0651 195.797 90.6836 198.703Z" fill="black"/>
<path fill-rule="evenodd" clip-rule="evenodd" d="M161.351 212.651C161.825 210.599 168.611 214.159 166.346 216.751C165.587 217.621 163.599 216.834 162.835 216.318C161.323 215.298 161.29 214.356 161.351 212.651Z" fill="black"/>
<path fill-rule="evenodd" clip-rule="evenodd" d="M123.542 168.725C123.807 167.81 124.101 166.193 124.974 165.609C126.553 164.553 127.928 166.146 127.928 167.825C127.929 170.958 124.363 171.946 123.542 168.725Z" fill="black"/>
<path fill-rule="evenodd" clip-rule="evenodd" d="M106.724 205.351C108.486 205.755 112.409 210.038 110.133 211.785C107.944 213.467 105.031 206.631 106.724 205.351Z" fill="black"/>
<path fill-rule="evenodd" clip-rule="evenodd" d="M108.401 172.932C110.666 173.113 113.78 176.781 110.259 177.364C107.505 177.821 104.302 173.831 108.401 172.932Z" fill="black"/>
<path fill-rule="evenodd" clip-rule="evenodd" d="M128.91 189.813C129.478 187.9 135.096 189.95 134.781 192.057C134.613 193.177 132.316 193.44 131.108 193.144C129.33 192.708 128.869 191.542 128.91 189.813Z" fill="black"/>
<path fill-rule="evenodd" clip-rule="evenodd" d="M62.6831 82.9338C62.7239 80.4598 67.4777 79.4515 67.8258 81.9446C68.1407 84.197 62.6235 86.5937 62.6831 82.9338Z" fill="black"/>
<path fill-rule="evenodd" clip-rule="evenodd" d="M127.339 215.305C127.682 214.061 127.83 212.564 129.384 212.4C131.163 212.212 131.11 213.576 130.901 214.99C130.332 218.837 128.158 219.029 127.339 215.305Z" fill="black"/>
<path fill-rule="evenodd" clip-rule="evenodd" d="M52.2682 112.368C49.7899 112.927 45.2509 108.154 48.0252 107.13C49.9801 106.408 52.2682 110.928 52.2682 112.368Z" fill="black"/>
<path fill-rule="evenodd" clip-rule="evenodd" d="M83.8774 149.443C82.6161 150.037 82.3256 150.398 81.3568 149.423C80.5131 148.574 80.5503 146.209 81.2744 145.326C84.0479 141.945 83.9828 148.075 83.8774 149.443Z" fill="black"/>
<path fill-rule="evenodd" clip-rule="evenodd" d="M94.1675 142.585C95.4829 142.753 99.3914 146.46 97.3562 147.934C94.8622 149.739 93.4512 144.084 94.1675 142.585Z" fill="black"/>
<path fill-rule="evenodd" clip-rule="evenodd" d="M122.627 143.562C121.671 147.244 119.284 144.767 119.419 141.981C119.636 137.518 122.11 141.405 122.627 143.562Z" fill="black"/>
<path fill-rule="evenodd" clip-rule="evenodd" d="M137.138 202.696C138.756 203.366 140.951 209.549 138.641 209.881C136.046 210.253 136.91 203.984 137.138 202.696Z" fill="black"/>
<path fill-rule="evenodd" clip-rule="evenodd" d="M116.937 199.222C118.788 198.598 119.466 202.502 118.39 203.228C116.023 204.823 116.522 200.144 116.937 199.222Z" fill="black"/>
<path fill-rule="evenodd" clip-rule="evenodd" d="M99.3877 188.583C99.3642 189.101 99.341 189.619 99.3167 190.134C99.3398 189.615 99.3634 189.099 99.3877 188.583Z" fill="#D71E78"/>
<path fill-rule="evenodd" clip-rule="evenodd" d="M161.351 212.651C161.332 213.183 161.313 213.714 161.293 214.243C161.311 213.71 161.331 213.181 161.351 212.651Z" fill="#D71E78"/>
<path fill-rule="evenodd" clip-rule="evenodd" d="M128.91 189.813C128.9 190.264 128.889 190.715 128.877 191.163C128.887 190.711 128.899 190.262 128.91 189.813Z" fill="#D71E78"/>
<path fill-rule="evenodd" clip-rule="evenodd" d="M333.646 182.054C337.483 181.931 341.764 180.487 345.535 180.946C346.573 181.073 348.963 181.334 347.3 182.874C346.504 183.61 342.696 183.23 341.544 183.474C334.498 184.966 326.5 185.928 319.275 185.803C315.893 185.745 312.486 185.475 309.106 185.296C305.728 185.117 305.396 183.744 309.197 183.308C313.144 182.854 317.195 183.023 321.162 183.018C325.333 183.012 329.483 182.332 333.646 182.054Z" fill="black"/>
<path fill-rule="evenodd" clip-rule="evenodd" d="M342.071 172.808C341.701 173.86 341.377 176.274 339.962 176.432C337.98 176.653 337.651 173.25 337.724 172.005C337.813 170.503 338.354 168.007 340.221 168.528C341.798 168.967 341.956 171.606 342.071 172.808Z" fill="black"/>
<path fill-rule="evenodd" clip-rule="evenodd" d="M330.07 172.038C330.36 170.912 330.502 168.373 332.095 168.287C333.875 168.191 334.383 170.836 334.371 172.104C334.36 173.307 333.915 175.58 332.497 175.858C330.576 176.235 330.404 173.325 330.07 172.038Z" fill="black"/>
<path fill-rule="evenodd" clip-rule="evenodd" d="M310.084 174.058C309.507 175.412 309.126 177.276 307.341 176.353C305.961 175.64 305.769 172.761 306.029 171.444C306.299 170.078 306.87 168.513 308.439 169.127C310.248 169.835 310.065 172.568 310.084 174.058Z" fill="black"/>
<path fill-rule="evenodd" clip-rule="evenodd" d="M325.219 172.808C323.518 177.965 320.415 174.476 321.593 170.626C322.825 166.602 325.062 170.51 325.219 172.808Z" fill="black"/>
<path fill-rule="evenodd" clip-rule="evenodd" d="M316.93 173.064C316.458 173.972 315.955 175.93 314.682 175.724C313.121 175.471 313.07 172.466 313.242 171.347C313.391 170.368 313.831 168.736 315.138 168.757C317.026 168.788 316.899 171.888 316.93 173.064Z" fill="black"/>
<path fill-rule="evenodd" clip-rule="evenodd" d="M350.864 174.053C349.598 176.895 347.856 174.447 348.413 172.429C349.24 169.437 350.793 172.088 350.864 174.053Z" fill="black"/>
<path fill-rule="evenodd" clip-rule="evenodd" d="M319.85 183.021C318.467 183.016 317.084 183.011 315.701 183.006C317.085 182.745 318.469 182.643 319.85 183.021Z" fill="#D71E78"/>
<path fill-rule="evenodd" clip-rule="evenodd" d="M347.335 180.934C346.135 180.942 344.936 180.95 343.737 180.957C344.934 180.598 346.133 180.59 347.335 180.934Z" fill="#D71E78"/>
<path fill-rule="evenodd" clip-rule="evenodd" d="M310.084 174.058C310.076 173.369 310.066 172.68 310.058 171.992C310.413 172.677 310.388 173.366 310.084 174.058Z" fill="#D71E78"/>
<path fill-rule="evenodd" clip-rule="evenodd" d="M317.61 185.789C318.166 185.794 318.723 185.799 319.275 185.804C318.717 185.799 318.163 185.794 317.61 185.789Z" fill="#D71E78"/>
<path fill-rule="evenodd" clip-rule="evenodd" d="M308.26 185.296C308.824 185.296 309.388 185.295 309.948 185.296C309.382 185.296 308.822 185.296 308.26 185.296Z" fill="#D71E78"/>
<path fill-rule="evenodd" clip-rule="evenodd" d="M312.884 183.081C312.1 183.145 311.315 183.209 310.532 183.274C311.316 183.209 312.1 183.145 312.884 183.081Z" fill="#D71E78"/>
<path fill-rule="evenodd" clip-rule="evenodd" d="M323.485 183.013C322.711 183.014 321.937 183.016 321.163 183.017C321.937 182.691 322.711 182.682 323.485 183.013Z" fill="#D71E78"/>
<path fill-rule="evenodd" clip-rule="evenodd" d="M316.93 173.064C316.911 172.345 316.892 171.627 316.874 170.91C316.894 171.628 316.912 172.346 316.93 173.064Z" fill="#D71E78"/>
<path fill-rule="evenodd" clip-rule="evenodd" d="M306.029 171.443C306.025 172.144 306.021 172.845 306.015 173.542C306.019 172.841 306.024 172.142 306.029 171.443Z" fill="#D71E78"/>
<path fill-rule="evenodd" clip-rule="evenodd" d="M338.045 181.793C337.361 181.855 336.677 181.916 335.993 181.978C336.677 181.916 337.362 181.855 338.045 181.793Z" fill="#D71E78"/>
<path fill-rule="evenodd" clip-rule="evenodd" d="M350.864 174.054C350.842 173.442 350.82 172.829 350.798 172.218C350.82 172.831 350.842 173.442 350.864 174.054Z" fill="#D71E78"/>
<path fill-rule="evenodd" clip-rule="evenodd" d="M321.746 185.809C322.222 185.8 322.699 185.791 323.17 185.783C322.692 185.792 322.219 185.801 321.746 185.809Z" fill="#D71E78"/>
<path fill-rule="evenodd" clip-rule="evenodd" d="M342.071 172.808C342.029 172.368 341.987 171.928 341.945 171.49C341.987 171.93 342.029 172.369 342.071 172.808Z" fill="#D71E78"/>
<path fill-rule="evenodd" clip-rule="evenodd" d="M325.219 172.808C325.188 172.357 325.157 171.905 325.127 171.454C325.158 171.906 325.188 172.357 325.219 172.808Z" fill="#D71E78"/>
<path fill-rule="evenodd" clip-rule="evenodd" d="M79.5359 40.0822C77.6622 39.5905 77.3109 36.9574 77.612 35.3401C77.9535 34.5607 78.295 33.7817 78.6365 33.0022C78.5028 32.7141 78.3695 32.4259 78.2362 32.1377C78.4075 30.5326 77.9695 29.8351 79.8142 30.4852C83.2409 31.6935 83.7886 39.9583 79.5359 40.0822Z" fill="black"/>
<path fill-rule="evenodd" clip-rule="evenodd" d="M107.271 34.9909C108.815 34.8694 111.618 36.667 110.082 38.4062C109.13 39.4836 105.993 38.974 104.713 39.199C103.016 39.4974 101.246 39.9055 102.164 37.3633C102.885 35.3669 105.46 34.9388 107.271 34.9909Z" fill="black"/>
<path fill-rule="evenodd" clip-rule="evenodd" d="M105.647 46.9486C104.079 45.6913 104.779 39.9643 107.165 40.9947C109.62 42.0552 106.955 46.1221 105.647 46.9486Z" fill="black"/>
<path fill-rule="evenodd" clip-rule="evenodd" d="M77.6119 35.3398C77.6119 35.9425 77.6116 36.5454 77.6104 37.1453C77.2834 36.5415 77.2936 35.9405 77.6119 35.3398Z" fill="#D71E78"/>
<path fill-rule="evenodd" clip-rule="evenodd" d="M79.5359 40.0821C79.8554 40.0731 80.1754 40.0637 80.491 40.0554C80.1699 40.0656 79.8531 40.0738 79.5359 40.0821Z" fill="#D71E78"/>
<path fill-rule="evenodd" clip-rule="evenodd" d="M273.131 205.011C272.985 207.616 270.187 205.69 270.386 203.948C270.746 200.785 272.534 203.91 273.131 205.011Z" fill="black"/>
</svg>
